<svg width="377" height="622" viewBox="0 0 377 622" fill="none" xmlns="http://www.w3.org/2000/svg">
<g clip-path="url(#clip0_156_12407)">
<path d="M300.299 513.643C310.441 503.943 323.592 504.612 333.176 509.63C342.76 514.65 348.776 524.015 350.892 534.83C353.008 545.644 351.226 557.908 343.203 566.491C335.179 575.074 320.915 579.98 308.659 578.867C296.4 577.753 286.148 570.618 284.586 557.015C283.024 543.413 290.155 523.344 300.299 513.643Z" fill="#F2F2F2"/>
<path d="M319.096 506.046C312.657 506.001 306.005 508.188 300.297 513.645C290.155 523.345 283.02 543.414 284.582 557.016C286.145 570.619 296.399 577.754 308.655 578.867C312.717 579.235 316.996 578.941 321.199 578.071C324.209 571.177 326.811 560.494 327.014 547.4C327.205 534.997 325.238 520.445 325.153 506.723C323.183 506.296 321.152 506.056 319.096 506.046Z" fill="#CCCCCC"/>
<path d="M62.034 333.344C62.034 333.344 -7.71838 570.113 59.5423 598.775C126.805 627.436 309.907 626.19 321.117 543.944C332.328 461.698 228.945 322.128 228.945 322.128L62.034 333.344Z" fill="#F2F2F2"/>
<path d="M228.943 322.126L62.0323 333.347C62.0323 333.347 58.4881 345.424 53.7734 364.368C72.6015 376.885 92.8948 387.144 115.548 392.101C142.825 398.07 173.509 396.366 205.216 385.619C222.539 379.75 240.163 371.183 254.956 360.779C240.25 337.414 228.943 322.126 228.943 322.126Z" fill="#CCCCCC"/>
<path d="M76.4439 221.463C76.4439 221.463 -0.591772 292.243 30.8512 333.139C62.2958 374.033 230.516 378.753 268.248 328.42C305.981 278.088 232.089 221.463 232.089 221.463C232.089 221.463 383.018 128.665 375.157 65.7498C367.297 2.83467 184.923 62.6026 167.629 191.578C167.629 191.578 156.625 182.142 137.76 190.006C137.76 190.006 96.3454 -67.3954 11.9867 16.9892C-27.3484 56.3364 93.1267 146.097 76.4439 221.463Z" fill="#F2F2F2"/>
<path d="M185.394 262.179C185.394 274.476 178.615 284.445 170.251 284.445C166.234 284.445 162.384 282.098 159.545 277.923C156.703 273.748 155.109 268.084 155.109 262.179C155.109 249.882 161.888 239.915 170.251 239.915C178.615 239.915 185.394 249.882 185.394 262.179Z" fill="#4D4D4D"/>
<path d="M109.222 262.64C109.222 274.935 102.443 284.903 94.0806 284.903C85.7165 284.903 78.9375 274.935 78.9375 262.64C78.9375 256.735 80.5339 251.07 83.3729 246.894C86.2119 242.719 90.0645 240.374 94.0806 240.374C102.443 240.374 109.222 250.343 109.222 262.64Z" fill="#4D4D4D"/>
<path d="M136.003 307.091C131.23 301.649 110.005 300.811 104.169 305.839C98.331 310.865 107.883 321.752 118.492 322.167C129.102 322.581 140.776 312.534 136.003 307.091Z" fill="#FF8080"/>
<path d="M82.3277 464.277C74.2656 463.771 63.6858 468.811 57.5148 475.366C51.3429 481.919 49.5797 489.983 53.3594 491.491C57.1375 493.003 66.4568 487.963 72.6287 488.091C78.8005 488.226 81.8241 493.511 86.1033 492.501C90.3849 491.491 95.9262 484.183 95.9286 477.507C95.9286 470.831 90.389 464.783 82.3277 464.277Z" fill="#FF8080"/>
<path d="M90.1364 589.52C79.0531 590.526 62.6812 596.069 55.2497 601.238C47.8182 606.406 49.3288 611.194 60.1611 614.09C70.9935 616.986 91.1435 617.994 101.47 614.592C111.795 611.192 112.298 603.38 109.656 597.71C107.014 592.04 101.22 588.512 90.1364 589.519" fill="#FF8080"/>
<path d="M268.003 605.775C262.909 602.674 252.723 596.473 243.242 594.004C233.761 591.534 224.988 592.794 218.788 598.088C212.589 603.382 208.959 612.705 215.007 617.491C221.057 622.277 236.786 622.529 247.827 621.521C258.868 620.514 265.22 618.246 268.652 615.93C272.082 613.612 272.589 611.247 272.844 610.061C273.097 608.876 273.097 608.876 268.003 605.775Z" fill="#FF8080"/>
<path d="M48.0739 310.579C31.0827 311.726 11.5754 315.557 1.90804 327.647C1.33489 328.375 1.45713 329.43 2.18085 330.008C2.90214 330.587 3.95534 330.477 4.54063 329.76C13.0075 319.171 31.6858 315.055 48.3208 313.933C64.9559 312.812 79.3631 314.506 79.3631 314.506C79.8091 314.555 80.2544 314.425 80.6049 314.146C80.953 313.867 81.1764 313.459 81.2266 313.015C81.3302 312.097 80.677 311.266 79.7614 311.151C79.7614 311.151 65.0635 309.434 48.0739 310.579Z" fill="#4D4D4D"/>
<path d="M81.4746 326.305C81.4746 326.305 66.835 329.341 50.8298 335.25C34.8246 341.159 17.2837 349.699 11.5433 362.008C11.1499 362.844 11.5044 363.843 12.3375 364.243C13.181 364.633 14.1816 364.266 14.5734 363.422C19.4103 353.051 36.2655 344.213 51.9963 338.404C67.7279 332.596 82.1708 329.583 82.1708 329.583C83.0726 329.389 83.6482 328.501 83.462 327.597C83.2653 326.695 82.3804 326.119 81.4746 326.305Z" fill="#4D4D4D"/>
<path d="M228.664 293.213C219.153 293.465 209.513 295.343 200.875 297.685C183.6 302.362 170.23 309.063 170.23 309.063C169.401 309.482 169.068 310.493 169.484 311.323C169.903 312.152 170.914 312.487 171.745 312.069C171.745 312.069 184.826 305.521 201.743 300.94C218.66 296.357 239.286 293.899 254.092 301.487C254.923 301.904 255.932 301.57 256.353 300.741C256.774 299.918 256.452 298.908 255.634 298.481C247.545 294.336 238.174 292.959 228.664 293.213Z" fill="#4D4D4D"/>
<path d="M197.423 321.908C180.129 320.954 166.183 323.274 166.183 323.274C165.274 323.424 164.654 324.277 164.793 325.188C164.863 325.629 165.109 326.025 165.472 326.287C165.835 326.548 166.289 326.651 166.73 326.579C166.73 326.579 180.351 324.352 197.25 325.287C214.149 326.22 234.158 330.378 246.893 342.751C247.212 343.066 247.643 343.238 248.09 343.232C248.538 343.228 248.966 343.043 249.276 342.722C249.587 342.4 249.756 341.967 249.748 341.519C249.74 341.071 249.554 340.646 249.23 340.338C235.518 327.008 214.723 322.858 197.428 321.901" fill="#4D4D4D"/>
<path d="M212.688 206.926C212.688 206.926 230.208 62.944 335.956 69.2053C441.704 75.465 220.822 186.896 212.688 206.926Z" fill="#FF8080"/>
<path d="M90.6805 201.072C90.6805 201.072 66.3047 -17.1775 27.4829 38.3093C9.96059 63.3488 62.5226 80.8766 90.6805 201.072Z" fill="#FF8080"/>
<path d="M94.876 255.261C94.876 261.51 91.4298 266.575 87.1814 266.575C82.9314 266.575 79.4844 261.51 79.4844 255.261C79.4844 249.012 82.9314 243.944 87.1814 243.944C91.4298 243.944 94.876 249.012 94.876 255.261Z" fill="#F2F2F2"/>
<path d="M171.489 255.261C171.489 258.261 170.676 261.139 169.235 263.262C167.792 265.383 165.834 266.575 163.792 266.575C159.542 266.575 156.098 261.51 156.098 255.261C156.098 249.012 159.542 243.944 163.792 243.944C165.834 243.944 167.792 245.137 169.235 247.26C170.676 249.381 171.489 252.259 171.489 255.261Z" fill="#F2F2F2"/>
<g clip-path="url(#clip1_156_12407)">
<path d="M128.601 429.479L125.233 413.123L125.001 412L126.124 412.232L142.481 415.599L147.559 428.874L141.875 434.557L128.601 429.479Z" fill="#FFE266"/>
<path d="M134.304 422.192L125.235 413.123L125.003 412L126.126 412.232L135.195 421.301C135.436 421.541 135.445 421.942 135.195 422.192C134.946 422.441 134.545 422.432 134.304 422.192Z" fill="#D0844B"/>
<path d="M133.787 422.692C133.787 423.744 134.64 424.597 135.692 424.597C136.745 424.597 137.598 423.744 137.598 422.692C137.598 421.639 136.745 420.786 135.692 420.786C134.64 420.786 133.787 421.639 133.787 422.692Z" fill="#D0844B"/>
<path d="M144.048 438.765L151.765 431.047C153.005 429.807 155.015 429.807 156.255 431.047L226.949 501.741L214.742 513.949L144.048 443.254C142.808 442.014 142.808 440.004 144.048 438.765Z" fill="#8BB6EF"/>
<path d="M220.676 515.295L228.296 507.675C229.563 506.408 229.563 504.355 228.296 503.088L226.95 501.742L214.743 513.949L216.089 515.295C217.356 516.562 219.409 516.562 220.676 515.295Z" fill="#FFE266"/>
<path d="M233.479 520.536L233.536 520.479C235.488 518.527 235.488 515.361 233.536 513.409L228.19 508.063L221.063 515.191L226.409 520.536C228.361 522.488 231.527 522.488 233.479 520.536Z" fill="#8BB6EF"/>
<path d="M217.132 504.13C218.42 502.842 218.42 500.755 217.132 499.467L197.475 479.811C196.188 478.523 194.1 478.523 192.813 479.811C191.525 481.098 191.525 483.186 192.813 484.473L212.469 504.13C213.756 505.418 215.844 505.418 217.132 504.13Z" fill="#FFE266"/>
<path d="M140.192 439.433C141.073 440.314 142.501 440.314 143.382 439.433L152.437 430.379C153.318 429.498 153.318 428.069 152.437 427.188C151.556 426.307 150.127 426.307 149.246 427.188L140.192 436.243C139.311 437.124 139.311 438.552 140.192 439.433Z" fill="#FFE266"/>
</g>
<path d="M191.771 453.946C186.604 459.743 181.062 472.09 179.807 478.515C178.549 484.941 181.572 485.445 185.978 483.302C190.384 481.161 196.176 476.371 202.35 476.123C208.524 475.872 215.072 480.155 219.982 479.65C224.892 479.145 228.166 473.853 225.648 468.058C223.132 462.262 214.82 455.964 208.271 452.435C201.722 448.906 196.937 448.149 191.771 453.946Z" fill="#FF8080"/>
</g>
<defs>
<clipPath id="clip0_156_12407">
<rect width="377" height="622" fill="white"/>
</clipPath>
<clipPath id="clip1_156_12407">
<rect width="110" height="110" fill="white" transform="translate(235 412) rotate(90)"/>
</clipPath>
</defs>
</svg>
