<svg width="377" height="622" viewBox="0 0 377 622" fill="none" xmlns="http://www.w3.org/2000/svg">
<g clip-path="url(#clip0_156_12429)">
<path d="M300.299 513.643C310.441 503.943 323.592 504.612 333.176 509.63C342.76 514.65 348.776 524.015 350.892 534.83C353.008 545.644 351.226 557.908 343.203 566.491C335.179 575.074 320.915 579.98 308.659 578.867C296.4 577.753 286.148 570.618 284.586 557.015C283.024 543.413 290.155 523.344 300.299 513.643Z" fill="#F2F2F2"/>
<path d="M319.096 506.046C312.657 506.001 306.005 508.188 300.297 513.645C290.155 523.345 283.02 543.414 284.582 557.016C286.145 570.619 296.399 577.754 308.655 578.867C312.717 579.235 316.996 578.941 321.199 578.071C324.209 571.177 326.811 560.494 327.014 547.4C327.205 534.997 325.238 520.445 325.153 506.723C323.183 506.296 321.152 506.056 319.096 506.046Z" fill="#CCCCCC"/>
<path d="M62.034 333.344C62.034 333.344 -7.71838 570.113 59.5423 598.775C126.805 627.436 309.907 626.19 321.117 543.944C332.328 461.698 228.945 322.128 228.945 322.128L62.034 333.344Z" fill="#F2F2F2"/>
<path d="M228.943 322.126L62.0323 333.347C62.0323 333.347 58.4881 345.424 53.7734 364.368C72.6015 376.885 92.8948 387.144 115.548 392.101C142.825 398.07 173.509 396.366 205.216 385.619C222.539 379.75 240.163 371.183 254.956 360.779C240.25 337.414 228.943 322.126 228.943 322.126Z" fill="#CCCCCC"/>
<path d="M76.4439 221.463C76.4439 221.463 -0.591772 292.243 30.8512 333.139C62.2958 374.033 230.516 378.753 268.248 328.42C305.981 278.088 232.089 221.463 232.089 221.463C232.089 221.463 383.018 128.665 375.157 65.7498C367.297 2.83467 184.923 62.6026 167.629 191.578C167.629 191.578 156.625 182.142 137.76 190.006C137.76 190.006 96.3454 -67.3954 11.9867 16.9892C-27.3484 56.3364 93.1267 146.097 76.4439 221.463Z" fill="#F2F2F2"/>
<path d="M185.394 262.179C185.394 274.476 178.615 284.445 170.251 284.445C166.234 284.445 162.384 282.098 159.545 277.923C156.703 273.748 155.109 268.084 155.109 262.179C155.109 249.882 161.888 239.915 170.251 239.915C178.615 239.915 185.394 249.882 185.394 262.179Z" fill="#4D4D4D"/>
<path d="M109.222 262.64C109.222 274.935 102.443 284.903 94.0806 284.903C85.7165 284.903 78.9375 274.935 78.9375 262.64C78.9375 256.735 80.5339 251.07 83.3729 246.894C86.2119 242.719 90.0645 240.374 94.0806 240.374C102.443 240.374 109.222 250.343 109.222 262.64Z" fill="#4D4D4D"/>
<path d="M136.003 307.091C131.23 301.649 110.005 300.811 104.169 305.839C98.331 310.865 107.883 321.752 118.492 322.167C129.102 322.581 140.776 312.534 136.003 307.091Z" fill="#FF8080"/>
<path d="M90.1364 589.52C79.0531 590.526 62.6812 596.069 55.2497 601.238C47.8182 606.406 49.3288 611.194 60.1611 614.09C70.9935 616.986 91.1435 617.994 101.47 614.592C111.795 611.192 112.298 603.38 109.656 597.71C107.014 592.04 101.22 588.512 90.1364 589.519" fill="#FF8080"/>
<path d="M268.003 605.775C262.909 602.674 252.723 596.473 243.242 594.004C233.761 591.534 224.988 592.794 218.788 598.088C212.589 603.382 208.959 612.705 215.007 617.491C221.057 622.277 236.786 622.529 247.827 621.521C258.868 620.514 265.22 618.246 268.652 615.93C272.082 613.612 272.589 611.247 272.844 610.061C273.097 608.876 273.097 608.876 268.003 605.775Z" fill="#FF8080"/>
<path d="M48.0739 310.579C31.0827 311.726 11.5754 315.557 1.90804 327.647C1.33489 328.375 1.45713 329.43 2.18085 330.008C2.90214 330.587 3.95534 330.477 4.54063 329.76C13.0075 319.171 31.6858 315.055 48.3208 313.933C64.9559 312.812 79.3631 314.506 79.3631 314.506C79.8091 314.555 80.2544 314.425 80.6049 314.146C80.953 313.867 81.1764 313.459 81.2266 313.015C81.3302 312.097 80.677 311.266 79.7614 311.151C79.7614 311.151 65.0635 309.434 48.0739 310.579Z" fill="#4D4D4D"/>
<path d="M81.4746 326.305C81.4746 326.305 66.835 329.341 50.8298 335.25C34.8246 341.159 17.2837 349.699 11.5433 362.008C11.1499 362.844 11.5044 363.843 12.3375 364.243C13.181 364.633 14.1816 364.266 14.5734 363.422C19.4103 353.051 36.2655 344.213 51.9963 338.404C67.7279 332.596 82.1708 329.583 82.1708 329.583C83.0726 329.389 83.6482 328.501 83.462 327.597C83.2653 326.695 82.3804 326.119 81.4746 326.305Z" fill="#4D4D4D"/>
<path d="M228.664 293.213C219.153 293.465 209.513 295.343 200.875 297.685C183.6 302.362 170.23 309.063 170.23 309.063C169.401 309.482 169.068 310.493 169.484 311.323C169.903 312.152 170.914 312.487 171.745 312.069C171.745 312.069 184.826 305.521 201.743 300.94C218.66 296.357 239.286 293.899 254.092 301.487C254.923 301.904 255.932 301.57 256.353 300.741C256.774 299.918 256.452 298.908 255.634 298.481C247.545 294.336 238.174 292.959 228.664 293.213Z" fill="#4D4D4D"/>
<path d="M197.423 321.908C180.129 320.954 166.183 323.274 166.183 323.274C165.274 323.424 164.654 324.277 164.793 325.188C164.863 325.629 165.109 326.025 165.472 326.287C165.835 326.548 166.289 326.651 166.73 326.579C166.73 326.579 180.351 324.352 197.25 325.287C214.149 326.22 234.158 330.378 246.893 342.751C247.212 343.066 247.643 343.238 248.09 343.232C248.538 343.228 248.966 343.043 249.276 342.722C249.587 342.4 249.756 341.967 249.748 341.519C249.74 341.071 249.554 340.646 249.23 340.338C235.518 327.008 214.723 322.858 197.428 321.901" fill="#4D4D4D"/>
<path d="M212.688 206.926C212.688 206.926 230.208 62.944 335.956 69.2053C441.704 75.465 220.822 186.896 212.688 206.926Z" fill="#FF8080"/>
<path d="M90.6805 201.072C90.6805 201.072 66.3047 -17.1775 27.4829 38.3093C9.96059 63.3488 62.5226 80.8766 90.6805 201.072Z" fill="#FF8080"/>
<path d="M94.876 255.261C94.876 261.51 91.4298 266.575 87.1814 266.575C82.9314 266.575 79.4844 261.51 79.4844 255.261C79.4844 249.012 82.9314 243.944 87.1814 243.944C91.4298 243.944 94.876 249.012 94.876 255.261Z" fill="#F2F2F2"/>
<path d="M171.489 255.261C171.489 258.261 170.676 261.139 169.235 263.262C167.792 265.383 165.834 266.575 163.792 266.575C159.542 266.575 156.098 261.51 156.098 255.261C156.098 249.012 159.542 243.944 163.792 243.944C165.834 243.944 167.792 245.137 169.235 247.26C170.676 249.381 171.489 252.259 171.489 255.261Z" fill="#F2F2F2"/>
<path d="M207.709 406.313H204.027H202.735V403.129C202.735 401.727 201.588 400.58 200.185 400.58C198.783 400.58 197.636 401.727 197.636 403.129V406.313H186.164V403.129C186.164 401.727 185.016 400.58 183.614 400.58C182.212 400.58 181.065 401.727 181.065 403.129V406.313H169.969V403.129C169.969 401.727 168.822 400.58 167.42 400.58C166.018 400.58 164.87 401.727 164.87 403.129V406.313H153.524V403.129C153.524 401.727 152.376 400.58 150.974 400.58C149.572 400.58 148.425 401.727 148.425 403.129V406.313H137.329V403.129C137.329 401.727 136.182 400.58 134.78 400.58C133.378 400.58 132.23 401.727 132.23 403.129V406.313H121.261V403.129C121.261 401.727 120.113 400.58 118.711 400.58C117.309 400.58 116.162 401.727 116.162 403.129V406.313H105.066V403.129C105.066 401.727 103.919 400.58 102.517 400.58C101.115 400.58 99.9674 401.727 99.9674 403.129V406.313H88.6208V403.129C88.6208 401.727 87.4735 400.58 86.0715 400.58C84.6694 400.58 83.522 401.727 83.522 403.129V406.313H72.4264V403.129C72.4264 401.727 71.2791 400.58 69.8769 400.58C68.4748 400.58 67.3275 401.727 67.3275 403.129V406.313H66.2308C63.5145 406.313 61.3125 408.515 61.3125 411.231V528.439C61.3125 531.155 63.5145 533.357 66.2308 533.357H69.9133H204.027H207.709C210.425 533.357 212.627 531.155 212.627 528.439V411.231C212.628 408.515 210.425 406.313 207.709 406.313Z" fill="#004984"/>
<path d="M86.0729 416.272C87.4751 416.272 88.6223 415.125 88.6223 413.723V410.762V403.129C88.6223 401.727 87.475 400.58 86.0729 400.58C84.6708 400.58 83.5234 401.727 83.5234 403.129V410.93V413.723C83.5235 415.125 84.6707 416.272 86.0729 416.272Z" fill="#CCCCCC"/>
<path d="M102.518 416.272C103.92 416.272 105.068 415.125 105.068 413.723V410.916V403.129C105.068 401.727 103.92 400.58 102.518 400.58C101.116 400.58 99.9688 401.727 99.9688 403.129V410.776V413.723C99.9687 415.125 101.116 416.272 102.518 416.272Z" fill="#CCCCCC"/>
<path d="M118.71 416.272C120.112 416.272 121.259 415.125 121.259 413.723V410.841V403.129C121.259 401.727 120.112 400.58 118.71 400.58C117.307 400.58 116.16 401.727 116.16 403.129V410.85V413.723C116.16 415.125 117.307 416.272 118.71 416.272Z" fill="#CCCCCC"/>
<path d="M134.78 416.272C136.182 416.272 137.329 415.125 137.329 413.723V410.667V403.129C137.329 401.727 136.182 400.58 134.78 400.58C133.378 400.58 132.23 401.727 132.23 403.129V411.051V413.723C132.23 415.125 133.378 416.272 134.78 416.272Z" fill="#CCCCCC"/>
<path d="M150.975 416.272C152.377 416.272 153.525 415.125 153.525 413.723V410.606V403.129C153.525 401.727 152.378 400.58 150.975 400.58C149.573 400.58 148.426 401.727 148.426 403.129V411.142V413.723C148.426 415.125 149.573 416.272 150.975 416.272Z" fill="#CCCCCC"/>
<path d="M167.421 416.272C168.823 416.272 169.97 415.125 169.97 413.723V410.732V403.129C169.97 401.727 168.823 400.58 167.421 400.58C166.018 400.58 164.871 401.727 164.871 403.129V410.96V413.723C164.871 415.125 166.018 416.272 167.421 416.272Z" fill="#CCCCCC"/>
<path d="M183.616 416.272C185.018 416.272 186.165 415.125 186.165 413.723V410.671V403.129C186.165 401.727 185.018 400.58 183.616 400.58C182.214 400.58 181.066 401.727 181.066 403.129V411.046V413.723C181.066 415.125 182.214 416.272 183.616 416.272Z" fill="#CCCCCC"/>
<path d="M200.186 416.272C201.588 416.272 202.736 415.125 202.736 413.723V410.925V403.129C202.736 401.727 201.588 400.58 200.186 400.58C198.784 400.58 197.637 401.727 197.637 403.129V410.767V413.723C197.637 415.125 198.784 416.272 200.186 416.272Z" fill="#CCCCCC"/>
<path d="M69.8776 416.232C71.2798 416.232 72.4271 415.085 72.4271 413.683V410.837V403.09C72.4271 401.687 71.2798 400.54 69.8776 400.54C68.4754 400.54 67.3281 401.687 67.3281 403.09V410.855V413.683C67.3281 415.085 68.4754 416.232 69.8776 416.232Z" fill="#CCCCCC"/>
<path d="M204.027 406.313H202.735V410.925V413.723C202.735 415.125 201.587 416.272 200.185 416.272C198.783 416.272 197.636 415.125 197.636 413.723V410.766V406.313H186.164V410.671V413.723C186.164 415.125 185.017 416.272 183.614 416.272C182.212 416.272 181.065 415.125 181.065 413.723V411.046V406.313H169.969V410.732V413.723C169.969 415.125 168.822 416.272 167.42 416.272C166.018 416.272 164.87 415.125 164.87 413.723V410.96V406.313H153.524V410.605V413.723C153.524 415.125 152.377 416.272 150.974 416.272C149.572 416.272 148.425 415.125 148.425 413.723V411.141V406.313H137.329V410.667V413.723C137.329 415.125 136.182 416.272 134.78 416.272C133.378 416.272 132.23 415.125 132.23 413.723V411.051V406.313H121.261V410.841V413.723C121.261 415.125 120.113 416.272 118.711 416.272C117.309 416.272 116.162 415.125 116.162 413.723V410.85V406.313H105.066V410.915V413.722C105.066 415.125 103.919 416.272 102.517 416.272C101.115 416.272 99.9676 415.125 99.9676 413.722V410.776V406.313H88.6209V410.762V413.722C88.6209 415.125 87.4736 416.272 86.0715 416.272C84.6695 416.272 83.5221 415.125 83.5221 413.722V410.929V406.312H72.4265V410.836V413.682C72.4265 415.084 71.2792 416.232 69.877 416.232C68.4749 416.232 67.3276 415.084 67.3276 413.682V410.855V406.312H66.2309C63.5145 406.312 61.3125 408.515 61.3125 411.231V528.438C61.3125 531.155 63.5145 533.357 66.2309 533.357H204.026C206.743 533.357 208.945 531.155 208.945 528.438V411.231C208.945 408.515 206.743 406.313 204.027 406.313Z" fill="#1D71B8"/>
<path d="M202.76 407.828H202.735V410.925V413.723C202.735 415.125 201.587 416.273 200.185 416.273C198.783 416.273 197.636 415.125 197.636 413.723V410.767V407.827H186.163V410.671V413.723C186.163 415.125 185.016 416.272 183.614 416.272C182.212 416.272 181.064 415.125 181.064 413.723V411.046V407.827H169.969V410.732V413.723C169.969 415.125 168.822 416.272 167.42 416.272C166.017 416.272 164.87 415.125 164.87 413.723V410.96V407.827H153.523V410.606V413.723C153.523 415.125 152.376 416.272 150.974 416.272C149.572 416.272 148.424 415.125 148.424 413.723V411.142V407.827H137.329V410.667V413.723C137.329 415.125 136.182 416.272 134.78 416.272C133.377 416.272 132.23 415.125 132.23 413.723V411.052V407.827H121.26V410.841V413.723C121.26 415.125 120.113 416.272 118.711 416.272C117.309 416.272 116.162 415.125 116.162 413.723V410.85V407.827H105.066V410.916V413.723C105.066 415.125 103.919 416.272 102.517 416.272C101.114 416.272 99.9673 415.125 99.9673 413.723V410.776V407.827H88.6206V410.762V413.723C88.6206 415.125 87.4734 416.272 86.0713 416.272C84.6692 416.272 83.5218 415.125 83.5218 413.723V410.93V407.827H72.4262V410.836C73.2074 411.535 73.7018 412.547 73.7018 413.678C73.7018 415.785 71.9939 417.492 69.8871 417.492C69.0356 417.492 68.2519 417.21 67.6172 416.739V435.354H204.258V520.543C206.012 519.925 207.271 518.258 207.271 516.292V412.339C207.271 409.847 205.251 407.828 202.76 407.828Z" fill="#418ECD"/>
<path d="M67.6181 435.354H66V528.504H204.259V520.544V435.354H67.6181Z" fill="white"/>
<path d="M161.577 421.294H108.684V432.341H161.577V421.294Z" fill="#004984"/>
<path d="M88.6197 410.763V413.723C88.6197 415.126 87.4724 416.273 86.0703 416.273C84.6682 416.273 83.5208 415.126 83.5208 413.723V410.93C82.799 411.624 82.3477 412.598 82.3477 413.678C82.3477 415.785 84.0556 417.493 86.1624 417.493C88.2693 417.493 89.9772 415.785 89.9772 413.678C89.9772 412.508 89.4492 411.462 88.6197 410.763Z" fill="#004984"/>
<path d="M87.3916 415.416C85.9894 415.416 84.8421 414.269 84.8421 412.866V402.273C84.8421 401.666 85.0659 401.115 85.4232 400.676C84.335 400.966 83.5234 401.954 83.5234 403.13V413.724C83.5234 415.126 84.6707 416.273 86.0729 416.273C86.8682 416.273 87.5728 415.896 88.0413 415.321C87.8324 415.377 87.6173 415.416 87.3916 415.416Z" fill="#B2B2B2"/>
<path d="M87.7185 412.448C87.3921 412.448 87.125 412.181 87.125 411.855V404.008C87.125 403.682 87.3921 403.415 87.7185 403.415C88.0448 403.415 88.3118 403.682 88.3118 404.008V411.855C88.3118 412.181 88.0448 412.448 87.7185 412.448Z" fill="#F4F4F4"/>
<path d="M105.066 410.916V413.723C105.066 415.125 103.919 416.273 102.517 416.273C101.114 416.273 99.9672 415.125 99.9672 413.723V410.776C99.1468 411.476 98.625 412.515 98.625 413.678C98.625 415.785 100.333 417.493 102.44 417.493C104.547 417.493 106.255 415.785 106.255 413.678C106.254 412.59 105.797 411.611 105.066 410.916Z" fill="#004984"/>
<path d="M103.837 415.416C102.435 415.416 101.287 414.269 101.287 412.866V402.273C101.287 401.666 101.511 401.115 101.868 400.676C100.78 400.966 99.9688 401.954 99.9688 403.13V413.724C99.9688 415.126 101.116 416.273 102.518 416.273C103.314 416.273 104.018 415.896 104.487 415.321C104.278 415.377 104.063 415.416 103.837 415.416Z" fill="#B2B2B2"/>
<path d="M104.164 412.448C103.837 412.448 103.57 412.181 103.57 411.855V404.008C103.57 403.682 103.837 403.415 104.164 403.415C104.49 403.415 104.757 403.682 104.757 404.008V411.855C104.757 412.181 104.49 412.448 104.164 412.448Z" fill="#F4F4F4"/>
<path d="M121.261 410.842V413.723C121.261 415.126 120.114 416.273 118.712 416.273C117.31 416.273 116.163 415.126 116.163 413.723V410.851C115.39 411.549 114.902 412.556 114.902 413.678C114.902 415.785 116.61 417.493 118.717 417.493C120.824 417.493 122.532 415.785 122.532 413.678C122.532 412.551 122.04 411.54 121.261 410.842Z" fill="#004984"/>
<path d="M120.028 415.416C118.626 415.416 117.479 414.269 117.479 412.866V402.273C117.479 401.666 117.702 401.115 118.06 400.676C116.972 400.966 116.16 401.954 116.16 403.13V413.724C116.16 415.126 117.307 416.273 118.71 416.273C119.505 416.273 120.21 415.896 120.678 415.321C120.469 415.377 120.254 415.416 120.028 415.416Z" fill="#B2B2B2"/>
<path d="M120.359 412.448C120.033 412.448 119.766 412.181 119.766 411.855V404.008C119.766 403.682 120.033 403.415 120.359 403.415C120.685 403.415 120.952 403.682 120.952 404.008V411.855C120.952 412.181 120.685 412.448 120.359 412.448Z" fill="#F4F4F4"/>
<path d="M137.331 410.667V413.723C137.331 415.125 136.184 416.272 134.782 416.272C133.38 416.272 132.232 415.125 132.232 413.723V411.051C131.582 411.736 131.18 412.659 131.18 413.678C131.18 415.785 132.888 417.492 134.994 417.492C137.101 417.492 138.809 415.785 138.809 413.678C138.809 412.452 138.229 411.365 137.331 410.667Z" fill="#004984"/>
<path d="M136.099 415.416C134.696 415.416 133.549 414.269 133.549 412.866V402.273C133.549 401.666 133.773 401.115 134.13 400.676C133.042 400.966 132.23 401.954 132.23 403.13V413.724C132.23 415.126 133.378 416.273 134.78 416.273C135.575 416.273 136.28 415.896 136.748 415.321C136.54 415.377 136.324 415.416 136.099 415.416Z" fill="#B2B2B2"/>
<path d="M136.429 412.448C136.103 412.448 135.836 412.181 135.836 411.855V404.008C135.836 403.682 136.103 403.415 136.429 403.415C136.756 403.415 137.023 403.682 137.023 404.008V411.855C137.023 412.181 136.756 412.448 136.429 412.448Z" fill="#F4F4F4"/>
<path d="M153.523 410.606V413.724C153.523 415.126 152.376 416.273 150.973 416.273C149.571 416.273 148.424 415.126 148.424 413.724V411.142C147.822 411.817 147.453 412.704 147.453 413.679C147.453 415.785 149.161 417.493 151.268 417.493C153.375 417.493 155.083 415.785 155.083 413.679C155.083 412.416 154.467 411.301 153.523 410.606Z" fill="#004984"/>
<path d="M152.294 415.416C150.892 415.416 149.745 414.269 149.745 412.866V402.273C149.745 401.666 149.968 401.115 150.326 400.676C149.237 400.966 148.426 401.954 148.426 403.13V413.724C148.426 415.126 149.573 416.273 150.975 416.273C151.771 416.273 152.475 415.896 152.944 415.321C152.735 415.377 152.52 415.416 152.294 415.416Z" fill="#B2B2B2"/>
<path d="M152.625 412.448C152.298 412.448 152.031 412.181 152.031 411.855V404.008C152.031 403.682 152.298 403.415 152.625 403.415C152.951 403.415 153.218 403.682 153.218 404.008V411.855C153.218 412.181 152.951 412.448 152.625 412.448Z" fill="#F4F4F4"/>
<path d="M169.969 410.732V413.723C169.969 415.125 168.822 416.273 167.42 416.273C166.018 416.273 164.87 415.125 164.87 413.723V410.96C164.167 411.652 163.73 412.614 163.73 413.678C163.73 415.785 165.438 417.493 167.545 417.493C169.652 417.493 171.36 415.785 171.36 413.678C171.36 412.492 170.819 411.432 169.969 410.732Z" fill="#004984"/>
<path d="M168.739 415.416C167.337 415.416 166.19 414.269 166.19 412.866V402.273C166.19 401.666 166.413 401.115 166.771 400.676C165.683 400.966 164.871 401.954 164.871 403.13V413.724C164.871 415.126 166.018 416.273 167.421 416.273C168.216 416.273 168.921 415.896 169.389 415.321C169.18 415.377 168.965 415.416 168.739 415.416Z" fill="#B2B2B2"/>
<path d="M169.07 412.448C168.744 412.448 168.477 412.181 168.477 411.855V404.008C168.477 403.682 168.744 403.415 169.07 403.415C169.396 403.415 169.663 403.682 169.663 404.008V411.855C169.663 412.181 169.396 412.448 169.07 412.448Z" fill="#F4F4F4"/>
<path d="M186.165 410.671V413.723C186.165 415.125 185.017 416.272 183.615 416.272C182.213 416.272 181.066 415.125 181.066 413.723V411.046C180.412 411.731 180.008 412.656 180.008 413.678C180.008 415.785 181.716 417.493 183.823 417.493C185.929 417.493 187.637 415.785 187.637 413.678C187.637 412.455 187.06 411.369 186.165 410.671Z" fill="#004984"/>
<path d="M184.935 415.416C183.532 415.416 182.385 414.269 182.385 412.866V402.273C182.385 401.666 182.609 401.115 182.966 400.676C181.878 400.966 181.066 401.954 181.066 403.13V413.724C181.066 415.126 182.214 416.273 183.616 416.273C184.411 416.273 185.116 415.896 185.584 415.321C185.376 415.377 185.16 415.416 184.935 415.416Z" fill="#B2B2B2"/>
<path d="M185.261 412.448C184.935 412.448 184.668 412.181 184.668 411.855V404.008C184.668 403.682 184.935 403.415 185.261 403.415C185.588 403.415 185.855 403.682 185.855 404.008V411.855C185.855 412.181 185.588 412.448 185.261 412.448Z" fill="#F4F4F4"/>
<path d="M202.737 410.925V413.723C202.737 415.125 201.589 416.272 200.187 416.272C198.785 416.272 197.638 415.125 197.638 413.723V410.767C196.811 411.466 196.285 412.51 196.285 413.678C196.285 415.785 197.993 417.492 200.1 417.492C202.207 417.492 203.915 415.785 203.915 413.678C203.915 412.595 203.461 411.619 202.737 410.925Z" fill="#004984"/>
<path d="M201.505 415.416C200.103 415.416 198.955 414.269 198.955 412.866V402.273C198.955 401.666 199.179 401.115 199.536 400.676C198.448 400.966 197.637 401.954 197.637 403.13V413.724C197.637 415.126 198.784 416.273 200.186 416.273C200.982 416.273 201.686 415.896 202.155 415.321C201.946 415.377 201.731 415.416 201.505 415.416Z" fill="#B2B2B2"/>
<path d="M201.836 412.448C201.509 412.448 201.242 412.181 201.242 411.855V404.008C201.242 403.682 201.509 403.415 201.836 403.415C202.162 403.415 202.429 403.682 202.429 404.008V411.855C202.429 412.181 202.162 412.448 201.836 412.448Z" fill="#F4F4F4"/>
<path d="M89.4919 446.16H71.6594C70.1195 446.16 68.8711 444.912 68.8711 443.372V441.146C68.8711 439.606 70.1195 438.357 71.6594 438.357H89.4919C91.0319 438.357 92.2802 439.606 92.2802 441.146V443.372C92.2802 444.912 91.0319 446.16 89.4919 446.16Z" fill="#B2C9D7"/>
<path d="M117.067 446.16H98.7095C97.3144 446.16 96.1836 445.03 96.1836 443.635V440.883C96.1836 439.488 97.3145 438.357 98.7095 438.357H117.067C118.462 438.357 119.593 439.488 119.593 440.883V443.635C119.593 445.03 118.462 446.16 117.067 446.16Z" fill="#B2C9D7"/>
<path d="M144.155 446.16H126.238C124.722 446.16 123.492 444.931 123.492 443.414V441.104C123.492 439.587 124.722 438.357 126.238 438.357H144.155C145.672 438.357 146.901 439.587 146.901 441.104V443.414C146.901 444.931 145.672 446.16 144.155 446.16Z" fill="#B2C9D7"/>
<path d="M171.247 446.16H153.771C152.133 446.16 150.805 444.832 150.805 443.194V441.324C150.805 439.685 152.133 438.357 153.771 438.357H171.247C172.886 438.357 174.214 439.685 174.214 441.324V443.194C174.214 444.832 172.886 446.16 171.247 446.16Z" fill="#B2C9D7"/>
<path d="M198.591 446.16H181.053C179.431 446.16 178.117 444.846 178.117 443.225V441.293C178.117 439.672 179.431 438.357 181.053 438.357H198.591C200.212 438.357 201.526 439.672 201.526 441.293V443.225C201.526 444.846 200.212 446.16 198.591 446.16Z" fill="#B2C9D7"/>
<path d="M89.341 470.919H71.8104C70.187 470.919 68.8711 469.603 68.8711 467.979V452.344C68.8711 450.72 70.187 449.404 71.8104 449.404H89.3409C90.9641 449.404 92.2802 450.72 92.2802 452.344V467.979C92.2802 469.603 90.9642 470.919 89.341 470.919Z" fill="#D1E1EB"/>
<path d="M116.811 470.919H98.9653C97.4291 470.919 96.1836 469.673 96.1836 468.137V452.186C96.1836 450.65 97.4291 449.404 98.9653 449.404H116.811C118.347 449.404 119.593 450.65 119.593 452.186V468.137C119.593 469.673 118.347 470.919 116.811 470.919Z" fill="#D1E1EB"/>
<path d="M143.857 470.919H126.536C124.855 470.919 123.492 469.556 123.492 467.874V452.448C123.492 450.767 124.855 449.404 126.536 449.404H143.857C145.538 449.404 146.901 450.767 146.901 452.448V467.874C146.901 469.556 145.538 470.919 143.857 470.919Z" fill="#D1E1EB"/>
<path d="M171.068 470.919H153.95C152.213 470.919 150.805 469.51 150.805 467.773V452.55C150.805 450.813 152.213 449.404 153.95 449.404H171.068C172.805 449.404 174.214 450.813 174.214 452.55V467.773C174.214 469.51 172.805 470.919 171.068 470.919Z" fill="#D1E1EB"/>
<path d="M198.279 470.919H181.364C179.571 470.919 178.117 469.465 178.117 467.671V452.652C178.117 450.858 179.571 449.404 181.364 449.404H198.279C200.073 449.404 201.526 450.858 201.526 452.652V467.671C201.526 469.465 200.072 470.919 198.279 470.919Z" fill="#D1E1EB"/>
<path d="M89.7635 497.105H71.3878C69.9978 497.105 68.8711 495.978 68.8711 494.588V478.108C68.8711 476.718 69.9978 475.591 71.3878 475.591H89.7635C91.1534 475.591 92.2802 476.718 92.2802 478.108V494.588C92.2802 495.978 91.1534 497.105 89.7635 497.105Z" fill="#D1E1EB"/>
<path d="M117.017 497.105H98.7597C97.337 497.105 96.1836 495.952 96.1836 494.529V478.167C96.1836 476.744 97.337 475.591 98.7597 475.591H117.017C118.439 475.591 119.593 476.744 119.593 478.167V494.529C119.593 495.952 118.439 497.105 117.017 497.105Z" fill="#95C11F"/>
<path d="M144.28 497.105H126.114C124.666 497.105 123.492 495.931 123.492 494.483V478.212C123.492 476.765 124.666 475.591 126.114 475.591H144.28C145.728 475.591 146.901 476.765 146.901 478.212V494.483C146.901 495.931 145.728 497.105 144.28 497.105Z" fill="#D1E1EB"/>
<path d="M171.732 497.105H153.286C151.916 497.105 150.805 495.994 150.805 494.623V478.073C150.805 476.702 151.916 475.591 153.286 475.591H171.732C173.103 475.591 174.214 476.702 174.214 478.073V494.623C174.214 495.994 173.103 497.105 171.732 497.105Z" fill="#D1E1EB"/>
<path d="M199.104 497.105H180.54C179.202 497.105 178.117 496.02 178.117 494.683V478.013C178.117 476.675 179.202 475.591 180.54 475.591H199.104C200.442 475.591 201.526 476.675 201.526 478.013V494.683C201.526 496.02 200.442 497.105 199.104 497.105Z" fill="#D1E1EB"/>
<path d="M89.6078 523.482H71.5435C70.0676 523.482 68.8711 522.286 68.8711 520.81V504.64C68.8711 503.164 70.0675 501.968 71.5435 501.968H89.6078C91.0837 501.968 92.2803 503.164 92.2803 504.64V520.81C92.2802 522.286 91.0837 523.482 89.6078 523.482Z" fill="#D1E1EB"/>
<path d="M117.022 523.482H98.7544C97.3346 523.482 96.1836 522.331 96.1836 520.911V504.539C96.1836 503.119 97.3346 501.968 98.7544 501.968H117.022C118.442 501.968 119.593 503.119 119.593 504.539V520.911C119.593 522.331 118.442 523.482 117.022 523.482Z" fill="#D1E1EB"/>
<path d="M143.949 523.482H126.444C124.814 523.482 123.492 522.16 123.492 520.53V504.92C123.492 503.289 124.814 501.968 126.444 501.968H143.949C145.58 501.968 146.901 503.289 146.901 504.92V520.53C146.901 522.16 145.58 523.482 143.949 523.482Z" fill="#D1E1EB"/>
<path d="M171.202 523.482H153.816C152.153 523.482 150.805 522.134 150.805 520.471V504.979C150.805 503.316 152.153 501.968 153.816 501.968H171.202C172.866 501.968 174.214 503.316 174.214 504.979V520.471C174.214 522.134 172.866 523.482 171.202 523.482Z" fill="#D1E1EB"/>
<path d="M199.431 523.482H180.213C179.055 523.482 178.117 522.544 178.117 521.387V504.063C178.117 502.906 179.055 501.968 180.213 501.968H199.431C200.588 501.968 201.526 502.906 201.526 504.063V521.387C201.526 522.544 200.588 523.482 199.431 523.482Z" fill="#D1E1EB"/>
<path d="M99.2359 486.03L103.835 493.803C104.049 494.166 104.431 494.399 104.851 494.425C105.271 494.451 105.678 494.267 105.935 493.934L116.441 480.345C116.871 479.789 116.768 478.991 116.213 478.561C115.657 478.132 114.859 478.234 114.429 478.79L105.069 490.896L101.424 484.735C101.067 484.131 100.287 483.931 99.6827 484.289C99.0785 484.646 98.8784 485.426 99.2359 486.03Z" fill="#142846"/>
<path d="M72.4283 410.837V413.683C72.4283 415.085 71.281 416.232 69.8788 416.232C68.4767 416.232 67.3294 415.085 67.3294 413.683V410.855C66.5602 411.553 66.0742 412.558 66.0742 413.678C66.0742 415.785 67.7821 417.493 69.889 417.493C71.9958 417.493 73.7037 415.785 73.7037 413.678C73.7039 412.548 73.2094 411.535 72.4283 410.837Z" fill="#004984"/>
<path d="M71.1963 415.375C69.7941 415.375 68.6468 414.228 68.6468 412.825V402.232C68.6468 401.625 68.8705 401.074 69.2279 400.635C68.1396 400.925 67.3281 401.913 67.3281 403.089V413.683C67.3281 415.085 68.4753 416.232 69.8776 416.232C70.673 416.232 71.3776 415.855 71.846 415.28C71.6372 415.336 71.422 415.375 71.1963 415.375Z" fill="#B2B2B2"/>
<path d="M71.527 412.408C71.2006 412.408 70.9336 412.141 70.9336 411.814V403.968C70.9336 403.642 71.2006 403.375 71.527 403.375C71.8533 403.375 72.1204 403.642 72.1204 403.968V411.814C72.1204 412.141 71.8533 412.408 71.527 412.408Z" fill="#F4F4F4"/>
<path d="M82.3277 464.277C74.2656 463.771 63.6858 468.811 57.5148 475.366C51.3429 481.919 49.5797 489.983 53.3594 491.491C57.1375 493.003 66.4568 487.963 72.6287 488.091C78.8005 488.226 81.8241 493.511 86.1033 492.501C90.3849 491.491 95.9262 484.183 95.9286 477.507C95.9286 470.831 90.389 464.783 82.3277 464.277Z" fill="#FF8080"/>
<path d="M191.771 453.946C186.604 459.743 181.062 472.09 179.807 478.515C178.549 484.941 181.572 485.445 185.978 483.302C190.384 481.161 196.176 476.371 202.35 476.123C208.524 475.872 215.072 480.155 219.982 479.65C224.892 479.145 228.166 473.853 225.648 468.058C223.132 462.262 214.82 455.964 208.271 452.435C201.722 448.906 196.937 448.149 191.771 453.946Z" fill="#FF8080"/>
</g>
<defs>
<clipPath id="clip0_156_12429">
<rect width="377" height="622" fill="white"/>
</clipPath>
</defs>
</svg>
