<svg width="241" height="249" viewBox="0 0 241 249" fill="none" xmlns="http://www.w3.org/2000/svg">
<g clip-path="url(#clip0_687_19215)">
<path d="M200.995 143.254C207.224 139.277 218.346 136.785 226.651 140.757C234.956 144.729 240.441 155.164 240.009 165.277C239.578 175.39 233.234 185.181 226.039 190.752C218.845 196.322 210.802 197.674 205.004 191.539C199.207 185.403 195.651 171.779 194.541 162.236C193.43 152.693 194.767 147.233 200.995 143.255" fill="#F2F2F2"/>
<path d="M205.164 141.13C210.329 145.855 215.178 151.309 218.855 157.555C224.152 166.552 227.024 177.186 228.835 187.596C228.874 187.808 228.898 188.017 228.939 188.226C227.997 189.14 227.027 189.985 226.039 190.75C218.845 196.32 210.804 197.673 205.006 191.538C199.208 185.402 195.65 171.779 194.539 162.237C193.429 152.694 194.766 147.236 200.995 143.257C202.214 142.479 203.626 141.757 205.164 141.129" fill="#CCCCCC"/>
<path d="M138.796 105.117C148.734 106.639 168.608 109.684 183.653 119.026C198.698 128.369 208.909 144.007 213.409 163.569C217.909 183.132 216.698 206.615 208.662 221.259C200.625 235.904 185.765 241.71 164.651 243.017C143.537 244.325 116.17 241.135 95.8879 237.578C75.6052 234.021 62.408 230.097 55.8769 223.486C49.3451 216.875 49.4796 207.573 56.2174 192.533C62.9543 177.492 76.2957 156.714 89.5035 140.935C102.711 125.156 115.784 114.376 122.322 108.986C128.86 103.595 128.859 103.595 138.796 105.117Z" fill="#F2F2F2"/>
<path d="M138.581 109.38C138.581 101.616 162.788 109.526 173.947 113.987C168.021 117.941 161.435 121.369 157.422 125.435C148.89 134.083 149.114 145.107 148.145 158.747C147.177 172.386 149.665 188.947 142.484 199.718C135.303 210.489 118.456 215.474 104.591 217.453C90.7268 219.431 75.1967 218.099 62.8492 215.272C58.5757 214.293 54.6923 213.118 51.0734 211.395C51.0798 206.32 52.7964 200.166 56.215 192.533C62.9529 177.492 76.2975 156.718 89.5056 140.938C102.713 125.159 115.785 114.38 132.26 110.511C134.32 110.027 136.431 109.648 138.581 109.38Z" fill="#CCCCCC"/>
<path d="M128.059 129.236C128.059 129.236 180.728 198.749 100.381 209.328C20.0331 219.908 13.6397 171.352 22.0345 150.252C30.4297 129.153 48.0427 102.135 48.0427 102.135C48.0427 102.135 4.49911 12.603 13.3365 3.79455C22.1739 -5.0142 95.4423 0.943381 90.7355 99.1806C90.7355 99.1806 94.1584 98.383 102.586 104.33C102.586 104.33 138.954 -6.86466 186.935 31.5106C234.917 69.8858 137.898 96.773 128.059 129.236Z" fill="#F2F2F2"/>
<path d="M79.2537 183.298C77.0897 180.537 66.7231 179.549 63.7045 181.817C60.6863 184.085 65.0165 189.61 70.1987 190.102C75.3809 190.594 81.4167 186.061 79.2537 183.298Z" fill="#FF8080"/>
<path d="M91.7054 155.742C91.4704 159.076 92.2285 162.343 93.8124 164.824C95.396 167.304 97.6752 168.795 100.149 168.969C105.3 169.331 109.871 163.996 110.36 157.053C110.848 150.11 107.067 144.188 101.916 143.826C99.442 143.652 96.9764 144.81 95.0616 147.044C93.1464 149.279 91.9394 152.408 91.7054 155.742Z" fill="#4D4D4D"/>
<path d="M45.6712 148.681C45.4372 152.016 46.1952 155.282 47.7791 157.762C49.3621 160.243 51.641 161.734 54.1156 161.908C59.2665 162.271 63.8381 156.935 64.3258 149.992C64.8137 143.049 61.0339 137.128 55.8823 136.765C53.4087 136.591 50.9432 137.749 49.0283 139.984C47.1132 142.218 45.9061 145.347 45.6712 148.681Z" fill="#4D4D4D"/>
<path d="M96.0274 181.754C96.0274 181.754 104.813 179.823 115.827 179.703C126.842 179.584 140.184 181.209 149.369 188.601C149.595 188.787 149.738 189.054 149.767 189.345C149.796 189.636 149.708 189.926 149.522 190.151C149.339 190.38 149.073 190.526 148.783 190.558C148.493 190.589 148.201 190.504 147.974 190.321C139.487 183.489 126.626 181.79 115.854 181.906C105.081 182.024 96.488 183.9 96.488 183.9C95.8955 184.028 95.3113 183.65 95.1828 183.057C95.0567 182.465 95.4333 181.882 96.0258 181.753" fill="#4D4D4D"/>
<path d="M98.5303 190.454C98.5303 190.454 106.066 190.406 115.35 192.23C124.634 194.054 135.747 197.716 143.003 205.355C143.206 205.567 143.316 205.85 143.308 206.143C143.301 206.435 143.176 206.713 142.964 206.914C142.523 207.323 141.836 207.301 141.421 206.867C134.703 199.795 123.99 196.17 114.932 194.39C105.874 192.61 98.5435 192.655 98.5435 192.655C98.2503 192.657 97.9683 192.544 97.76 192.338C97.5524 192.132 97.4343 191.851 97.4337 191.558C97.4311 191.266 97.5457 190.984 97.7517 190.775C97.9577 190.567 98.2377 190.45 98.5303 190.449" fill="#4D4D4D"/>
<path d="M1.65627 168.271C12.6312 163.964 25.8474 166.399 36.3222 169.808C46.7967 173.216 54.5983 177.673 54.5983 177.673C55.1258 177.974 55.3096 178.645 55.0087 179.173C54.708 179.7 54.0363 179.884 53.509 179.583C53.509 179.583 45.8787 175.243 35.6347 171.91C25.391 168.577 12.609 166.343 2.46707 170.324C2.19444 170.429 1.89124 170.422 1.62408 170.304C1.35628 170.186 1.14803 169.966 1.04245 169.693C0.822609 169.131 1.09685 168.497 1.65723 168.272" fill="#4D4D4D"/>
<path d="M17.804 181.716C23.057 181.164 28.3212 181.386 33.0238 181.903C42.429 182.939 49.6062 185.232 49.6062 185.232C50.1856 185.414 50.5084 186.029 50.3278 186.61C50.2416 186.891 50.0452 187.127 49.7832 187.263C49.5212 187.399 49.2154 187.424 48.9354 187.332C48.9354 187.332 41.9652 185.104 32.7898 184.093C23.6138 183.082 12.2996 183.338 3.77376 188.077C3.24363 188.372 2.57477 188.183 2.278 187.653C2.13702 187.396 2.10419 187.093 2.18756 186.812C2.26996 186.531 2.4618 186.295 2.71962 186.155C7.32436 183.596 12.5516 182.266 17.8046 181.716" fill="#4D4D4D"/>
<path d="M122.532 244.02C122.641 243.061 122.861 241.143 121.122 238.347C119.384 235.549 115.687 231.878 112.117 229.89C108.546 227.902 105.103 227.599 102.156 229.265C99.2089 230.931 96.7569 234.562 96.5023 237.288C96.2483 240.014 98.1895 241.838 100.482 242.386C102.774 242.935 105.419 242.209 107.073 242.559C108.728 242.908 109.388 244.334 111.779 244.916C114.17 245.498 118.295 245.239 120.359 245.109C122.422 244.979 122.422 244.98 122.532 244.02Z" fill="#FF8080"/>
<path d="M63.5292 233.074C65.4688 230.929 63.8794 226.035 61.5702 223.219C59.2608 220.402 56.2342 219.667 52.8252 221.062C49.4162 222.457 45.6278 225.981 45.2032 228.493C44.779 231.005 47.7174 232.508 51.9204 233.562C56.1228 234.615 61.5892 235.219 63.5292 233.074Z" fill="#FF8080"/>
<path d="M193.38 239.217C191.827 236.995 188.718 232.552 184.953 230.135C181.188 227.719 176.77 227.33 172.484 229.06C168.198 230.79 164.046 234.636 162.237 237.835C160.426 241.034 160.956 243.584 162.241 244.869C163.525 246.154 165.566 246.175 167.405 245.4C169.244 244.624 170.881 243.05 171.157 243.305C171.434 243.561 170.349 245.644 171.432 246.859C172.514 248.074 175.762 248.422 180.192 247.791C184.621 247.16 190.232 245.548 192.887 244.325C195.542 243.103 195.238 242.269 195.087 241.852C194.934 241.434 194.934 241.438 193.38 239.217Z" fill="#FF8080"/>
<path d="M123.84 118.66C123.84 118.66 144.632 93.4443 164.602 80.5979C184.572 67.7509 183.321 45.8457 183.321 45.8457C183.321 45.8457 145.655 57.7535 123.84 118.66Z" fill="#FF8080"/>
<path d="M57.2404 95.8963C57.2404 95.8963 61.1492 63.5031 49.0531 43.0261C36.9568 22.5497 18.6244 16.7891 18.6244 16.7891C18.6244 16.7891 40.9795 84.1411 57.2404 95.8963Z" fill="#FF8080"/>
<path d="M98.4258 150.652C98.2832 152.677 98.7438 154.661 99.7056 156.167C100.667 157.674 102.051 158.58 103.555 158.685C105.056 158.791 106.554 158.088 107.717 156.731C108.88 155.374 109.613 153.473 109.756 151.448C109.898 149.423 109.438 147.439 108.476 145.932C107.515 144.426 106.13 143.52 104.627 143.415C103.125 143.309 101.628 144.012 100.465 145.37C99.3016 146.727 98.5684 148.627 98.4258 150.652Z" fill="#F2F2F2"/>
<path d="M53.2491 144.32C52.9524 148.537 55.249 152.134 58.3776 152.353C61.5062 152.573 64.2824 149.333 64.5791 145.116C64.7214 143.091 64.2608 141.107 63.2994 139.601C62.3376 138.094 60.9526 137.188 59.4504 137.083C57.9482 136.977 56.4502 137.68 55.2876 139.037C54.125 140.394 53.3914 142.294 53.2491 144.32Z" fill="#F2F2F2"/>
</g>
<defs>
<clipPath id="clip0_687_19215">
<rect width="241" height="249" fill="white" transform="matrix(-1 0 0 1 241 0)"/>
</clipPath>
</defs>
</svg>
