<svg width="377" height="622" viewBox="0 0 377 622" fill="none" xmlns="http://www.w3.org/2000/svg">
<g clip-path="url(#clip0_805_19068)">
<path d="M300.298 513.643C310.44 503.943 323.591 504.612 333.175 509.63C342.759 514.65 348.775 524.015 350.891 534.83C353.007 545.644 351.225 557.908 343.202 566.491C335.178 575.074 320.914 579.98 308.658 578.867C296.399 577.753 286.147 570.618 284.585 557.015C283.023 543.413 290.154 523.344 300.298 513.643Z" fill="#F2F2F2"/>
<path d="M319.096 506.046C312.657 506.001 306.005 508.188 300.297 513.645C290.155 523.345 283.02 543.414 284.582 557.016C286.145 570.619 296.399 577.754 308.655 578.867C312.717 579.235 316.996 578.941 321.199 578.071C324.209 571.177 326.811 560.494 327.014 547.4C327.205 534.997 325.238 520.445 325.153 506.723C323.183 506.296 321.152 506.056 319.096 506.046Z" fill="#CCCCCC"/>
<path d="M62.034 333.345C62.034 333.345 -7.71838 570.114 59.5423 598.776C126.805 627.437 309.907 626.191 321.117 543.945C332.328 461.699 228.945 322.129 228.945 322.129L62.034 333.345Z" fill="#F2F2F2"/>
<path d="M228.943 322.125L62.0323 333.346C62.0323 333.346 58.4881 345.423 53.7734 364.367C72.6015 376.884 92.8948 387.143 115.548 392.1C142.825 398.069 173.509 396.365 205.216 385.618C222.539 379.749 240.163 371.182 254.956 360.778C240.25 337.413 228.943 322.125 228.943 322.125Z" fill="#CCCCCC"/>
<path d="M76.443 221.463C76.443 221.463 -0.592748 292.243 30.8502 333.139C62.2948 374.033 230.515 378.753 268.247 328.42C305.98 278.088 232.088 221.463 232.088 221.463C232.088 221.463 383.017 128.665 375.156 65.7498C367.296 2.83467 184.922 62.6026 167.628 191.578C167.628 191.578 156.625 182.142 137.759 190.006C137.759 190.006 96.3445 -67.3954 11.9857 16.9892C-27.3493 56.3364 93.1258 146.097 76.443 221.463Z" fill="#F2F2F2"/>
<path d="M185.394 262.18C185.394 274.477 178.615 284.446 170.251 284.446C166.234 284.446 162.384 282.099 159.545 277.924C156.703 273.749 155.109 268.085 155.109 262.18C155.109 249.883 161.888 239.916 170.251 239.916C178.615 239.916 185.394 249.883 185.394 262.18Z" fill="#4D4D4D"/>
<path d="M109.223 262.639C109.223 274.934 102.444 284.902 94.0816 284.902C85.7175 284.902 78.9385 274.934 78.9385 262.639C78.9385 256.734 80.5349 251.069 83.3739 246.894C86.2129 242.719 90.0655 240.373 94.0816 240.373C102.444 240.373 109.223 250.342 109.223 262.639Z" fill="#4D4D4D"/>
<path d="M136.002 307.091C131.229 301.649 110.004 300.811 104.168 305.839C98.33 310.865 107.882 321.752 118.491 322.167C129.101 322.581 140.775 312.534 136.002 307.091Z" fill="#FF8080"/>
<path d="M82.3296 464.277C74.2675 463.771 63.6878 468.811 57.5167 475.366C51.3448 481.919 49.5817 489.983 53.3614 491.491C57.1395 493.003 66.4588 487.963 72.6306 488.091C78.8025 488.226 81.8261 493.511 86.1053 492.501C90.3869 491.491 95.9281 484.183 95.9305 477.507C95.9305 470.831 90.3909 464.783 82.3296 464.277Z" fill="#FF8080"/>
<path d="M191.771 453.946C186.604 459.743 181.062 472.09 179.807 478.515C178.549 484.941 181.572 485.445 185.978 483.302C190.384 481.161 196.176 476.371 202.35 476.123C208.524 475.872 215.072 480.155 219.982 479.65C224.892 479.145 228.166 473.853 225.648 468.058C223.132 462.262 214.82 455.964 208.271 452.435C201.722 448.906 196.937 448.149 191.771 453.946Z" fill="#FF8080"/>
<path d="M90.1384 589.52C79.0551 590.526 62.6832 596.069 55.2517 601.238C47.8202 606.406 49.3308 611.194 60.1631 614.09C70.9954 616.986 91.1454 617.994 101.472 614.592C111.797 611.192 112.3 603.38 109.658 597.71C107.015 592.04 101.222 588.512 90.1384 589.519" fill="#FF8080"/>
<path d="M268.001 605.776C262.907 602.675 252.721 596.474 243.24 594.005C233.759 591.535 224.986 592.795 218.786 598.089C212.587 603.383 208.957 612.706 215.005 617.492C221.055 622.278 236.784 622.53 247.825 621.522C258.866 620.515 265.218 618.247 268.65 615.931C272.08 613.613 272.587 611.248 272.842 610.062C273.095 608.877 273.095 608.877 268.001 605.776Z" fill="#FF8080"/>
<path d="M48.0739 310.579C31.0827 311.726 11.5754 315.557 1.90804 327.647C1.33489 328.375 1.45713 329.43 2.18085 330.008C2.90214 330.587 3.95534 330.477 4.54063 329.76C13.0075 319.171 31.6858 315.055 48.3208 313.933C64.9559 312.812 79.3631 314.506 79.3631 314.506C79.8091 314.555 80.2544 314.425 80.6049 314.146C80.953 313.867 81.1764 313.459 81.2266 313.015C81.3302 312.097 80.677 311.266 79.7614 311.151C79.7614 311.151 65.0635 309.434 48.0739 310.579Z" fill="#4D4D4D"/>
<path d="M81.4756 326.305C81.4756 326.305 66.836 329.34 50.8308 335.249C34.8256 341.158 17.2847 349.698 11.5443 362.007C11.1508 362.843 11.5054 363.842 12.3384 364.242C13.182 364.632 14.1825 364.265 14.5744 363.421C19.4113 353.051 36.2665 344.212 51.9973 338.403C67.7289 332.595 82.1718 329.582 82.1718 329.582C83.0736 329.388 83.6491 328.5 83.463 327.596C83.2662 326.694 82.3814 326.118 81.4756 326.305Z" fill="#4D4D4D"/>
<path d="M228.664 293.213C219.153 293.465 209.513 295.343 200.875 297.685C183.6 302.362 170.23 309.063 170.23 309.063C169.401 309.482 169.068 310.493 169.484 311.323C169.903 312.152 170.914 312.487 171.745 312.069C171.745 312.069 184.826 305.521 201.743 300.94C218.66 296.357 239.286 293.899 254.092 301.487C254.923 301.904 255.932 301.57 256.353 300.741C256.774 299.918 256.452 298.908 255.634 298.481C247.545 294.336 238.174 292.959 228.664 293.213Z" fill="#4D4D4D"/>
<path d="M197.422 321.908C180.128 320.954 166.182 323.274 166.182 323.274C165.273 323.424 164.653 324.277 164.792 325.188C164.862 325.629 165.109 326.025 165.471 326.287C165.834 326.548 166.288 326.651 166.729 326.579C166.729 326.579 180.35 324.352 197.249 325.287C214.148 326.22 234.157 330.378 246.892 342.751C247.211 343.066 247.642 343.238 248.089 343.232C248.537 343.228 248.965 343.043 249.275 342.722C249.586 342.4 249.755 341.967 249.747 341.519C249.739 341.071 249.553 340.646 249.229 340.338C235.517 327.008 214.722 322.858 197.427 321.901" fill="#4D4D4D"/>
<path d="M212.688 206.927C212.688 206.927 230.209 62.945 335.957 69.2063C441.705 75.4659 220.823 186.897 212.688 206.927Z" fill="#FF8080"/>
<path d="M90.6785 201.072C90.6785 201.072 66.3028 -17.1775 27.4809 38.3093C9.95864 63.3488 62.5206 80.8766 90.6785 201.072Z" fill="#FF8080"/>
<path d="M94.877 255.26C94.877 261.509 91.4308 266.574 87.1824 266.574C82.9323 266.574 79.4854 261.509 79.4854 255.26C79.4854 249.011 82.9323 243.943 87.1824 243.943C91.4308 243.943 94.877 249.011 94.877 255.26Z" fill="#F2F2F2"/>
<path d="M171.487 255.26C171.487 258.26 170.675 261.138 169.233 263.261C167.79 265.382 165.832 266.574 163.79 266.574C159.54 266.574 156.096 261.509 156.096 255.26C156.096 249.011 159.54 243.943 163.79 243.943C165.832 243.943 167.79 245.136 169.233 247.259C170.675 249.38 171.487 252.258 171.487 255.26Z" fill="#F2F2F2"/>
</g>
<defs>
<clipPath id="clip0_805_19068">
<rect width="377" height="622" fill="white"/>
</clipPath>
</defs>
</svg>
