<svg width="470" height="423" viewBox="0 0 470 423" fill="none" xmlns="http://www.w3.org/2000/svg">
<path d="M51.6641 356.005C51.6641 339.637 117.733 326.369 199.232 326.369C280.732 326.369 346.801 339.637 346.801 356.005C346.801 372.372 280.732 385.641 199.232 385.641C117.733 385.641 51.6641 372.372 51.6641 356.005Z" fill="#9AC266"/>
<path d="M319.438 98.8916C319.438 70.2941 342.621 47.1113 371.218 47.1113C399.815 47.1113 422.998 70.2941 422.998 98.8916C422.998 127.489 399.815 150.672 371.218 150.672C342.621 150.672 319.438 127.489 319.438 98.8916Z" fill="#F2F2F2"/>
<path d="M311.164 147.641C311.164 141.271 316.329 136.105 322.701 136.105C329.072 136.105 334.237 141.271 334.237 147.641C334.237 154.013 329.072 159.178 322.701 159.178C316.329 159.178 311.164 154.013 311.164 147.641Z" fill="#F2F2F2"/>
<path d="M298.625 159.429C298.625 156.797 300.759 154.664 303.391 154.664C306.021 154.664 308.154 156.797 308.154 159.429C308.154 162.06 306.021 164.193 303.391 164.193C300.759 164.193 298.625 162.06 298.625 159.429Z" fill="#F2F2F2"/>
<path d="M130.083 347.67C122.722 347.745 107.999 347.895 97.707 342.638C87.4154 337.381 81.5566 326.715 81.7059 316.498C81.8547 306.28 88.0147 296.515 95.2277 291.481C102.44 286.448 110.703 286.149 118.065 289.079C125.427 292.009 131.887 298.169 134.965 308.461C138.044 318.752 137.744 333.174 137.593 340.384C137.443 347.595 137.443 347.595 130.083 347.67Z" fill="#F2F2F2"/>
<path d="M120.78 290.328C118.12 294.26 115.518 298.75 113.695 303.479C109.693 313.86 109.443 325.362 101.19 331.239C97.9841 333.522 93.5789 334.962 89.6289 336.536C91.8883 338.957 94.5952 341.046 97.7109 342.637C108.002 347.894 122.727 347.746 130.087 347.671C137.447 347.595 137.447 347.595 137.598 340.384C137.748 333.174 138.047 318.751 134.967 308.46C132.274 299.455 126.99 293.612 120.78 290.328Z" fill="#CCCCCC"/>
<path d="M157.673 234.61C143.019 250.467 127.491 280.21 121.696 304.158C115.901 328.107 119.837 346.258 135.585 356.536C151.332 366.814 178.888 369.219 201.96 366.485C225.032 363.751 243.621 355.878 253.134 342.976C262.647 330.074 263.084 312.141 261.117 290.927C259.148 269.713 254.775 245.219 244.168 231.987C233.562 218.755 216.722 216.786 201.413 216.786C186.105 216.786 172.327 218.754 157.673 234.61Z" fill="#F2F2F2"/>
<path d="M201.412 216.788C186.102 216.787 172.327 218.756 157.672 234.611C155.902 236.528 154.118 238.65 152.34 240.937C166.839 251.831 181.456 263.421 196.189 270.322C212.85 278.126 229.658 279.93 245.717 275.276C250.022 274.029 254.274 272.313 258.367 270.071C255.716 255.217 251.385 240.995 244.167 231.99C233.561 218.757 216.722 216.788 201.412 216.788Z" fill="#CCCCCC"/>
<path d="M180.096 184.6C180.096 184.6 159.873 164.923 115.057 169.296C70.2415 173.668 52.2057 199.903 61.497 207.553C70.7878 215.204 144.571 219.577 144.571 219.577L180.096 184.6Z" fill="#CCCCCC"/>
<path d="M198.495 159.731C186.289 164.194 173.353 171.664 165.61 179.043C157.867 186.422 155.316 193.709 154.862 204.185C154.406 214.662 156.046 228.324 161.239 237.707C166.433 247.088 175.177 252.189 187.292 253.372C199.407 254.556 214.891 251.823 229.375 246.722C243.858 241.621 257.339 234.151 265.172 226.136C273.004 218.121 275.191 209.559 274.553 200.815C273.918 192.07 270.456 183.144 263.17 175.036C255.883 166.928 244.771 159.641 233.474 156.727C222.179 153.81 210.701 155.268 198.495 159.731Z" fill="#F2F2F2"/>
<path d="M162.059 208.1C162.059 208.1 137.464 191.703 83.9029 224.497C30.342 257.289 34.1681 299.372 101.392 264.941C168.617 230.508 185.014 215.204 185.014 215.204L162.059 208.1Z" fill="#F2F2F2"/>
<path d="M160.966 220.124C160.966 220.124 151.674 212.473 100.846 230.508C50.0181 248.545 50.0181 284.616 92.1012 263.848C134.185 243.079 160.966 220.124 160.966 220.124Z" fill="#FF8080"/>
<path d="M192.664 193.071C192.664 196.187 191.685 199.176 189.943 201.379C188.201 203.582 185.837 204.821 183.373 204.821C180.909 204.821 178.547 203.582 176.803 201.379C175.061 199.176 174.082 196.187 174.082 193.071C174.082 189.954 175.061 186.964 176.803 184.761C178.547 182.557 180.909 181.319 183.373 181.319C185.837 181.319 188.201 182.557 189.943 184.761C191.685 186.964 192.664 189.954 192.664 193.071Z" fill="#4D4D4D"/>
<path d="M253.343 160.865C257.514 165.836 257.71 172.54 253.778 175.839C249.848 179.137 243.279 177.78 239.108 172.808C234.936 167.837 234.743 161.134 238.673 157.835C242.605 154.537 249.172 155.893 253.343 160.865Z" fill="#4D4D4D"/>
<path d="M229.758 207.026L232.678 215.558L242.334 214.211L241.659 201.86L234.922 198.716C234.922 198.716 230.88 205.902 229.758 207.026Z" fill="white"/>
<path d="M228.714 187.208C228.189 187.535 228.026 188.224 228.349 188.752C228.349 188.752 229.56 190.748 230.773 193.119C231.379 194.303 231.992 195.579 232.433 196.72C232.874 197.863 233.113 198.902 233.113 199.394C233.113 199.629 232.709 200.65 231.901 201.734C231.093 202.818 229.975 204.026 228.847 205.154C226.591 207.41 224.315 209.304 224.315 209.304C223.841 209.7 223.773 210.403 224.164 210.881C224.355 211.114 224.631 211.261 224.93 211.288C225.229 211.317 225.528 211.224 225.759 211.031C225.759 211.031 228.092 209.095 230.44 206.749C231.613 205.574 232.792 204.311 233.71 203.079C234.628 201.848 235.37 200.73 235.37 199.394C235.37 198.312 235.009 197.165 234.523 195.907C234.04 194.65 233.409 193.318 232.781 192.089C231.523 189.632 230.274 187.574 230.274 187.574C230.116 187.317 229.863 187.134 229.57 187.065C229.277 186.996 228.968 187.049 228.714 187.209" fill="#4D4D4D"/>
<path d="M234.027 197.617C233.422 197.493 232.83 197.878 232.699 198.481C232.633 198.774 232.689 199.079 232.85 199.333C233.012 199.585 233.269 199.763 233.562 199.826C233.562 199.826 240.611 201.361 245.033 207.047C245.414 207.536 246.12 207.625 246.611 207.246C246.85 207.062 247.007 206.79 247.044 206.491C247.082 206.191 246.997 205.889 246.81 205.652C241.8 199.213 234.026 197.617 234.026 197.617" fill="#4D4D4D"/>
<path d="M190.778 371.032C190.476 366.976 193.029 360.215 196.186 357.21C199.343 354.205 203.099 354.957 207.156 357.887C211.211 360.818 215.568 365.925 215.867 368.929C216.168 371.932 212.412 372.833 209.558 372.534C206.704 372.235 204.752 370.733 202.872 371.408C200.993 372.083 199.189 374.938 196.713 375.689C194.235 376.441 191.08 375.089 190.778 371.032Z" fill="#FF8080"/>
<path d="M235.549 365.249C234.346 362.17 234.796 356.912 236.225 354.056C237.652 351.2 240.056 350.749 243.212 352.704C246.367 354.659 250.273 359.015 251.099 361.493C251.925 363.97 249.672 364.571 247.568 364.572C245.466 364.573 243.513 363.971 242.685 364.799C241.858 365.626 242.158 367.88 240.882 368.555C239.606 369.23 236.752 368.328 235.549 365.249Z" fill="#FF8080"/>
<path d="M210.339 203.727C210.339 203.727 205.552 203.576 199.066 206.632C192.582 209.686 184.275 215.944 176.871 228.612C176.721 228.871 176.68 229.179 176.757 229.469C176.835 229.76 177.025 230.007 177.286 230.155C177.819 230.461 178.498 230.284 178.813 229.757C186.009 217.443 193.944 211.54 200.029 208.674C206.115 205.807 210.256 205.968 210.256 205.968C210.873 205.988 211.392 205.506 211.418 204.889C211.438 204.271 210.957 203.752 210.339 203.727Z" fill="#4D4D4D"/>
<path d="M213.69 206.433C213.69 206.433 210.196 208.122 205.988 212.957C201.778 217.791 196.752 225.818 193.304 238.622C193.144 239.223 193.5 239.839 194.101 240C194.701 240.16 195.318 239.803 195.478 239.204C198.845 226.702 203.714 219.009 207.697 214.434C211.679 209.861 214.669 208.458 214.669 208.458C215.226 208.19 215.464 207.523 215.201 206.964C215.072 206.692 214.84 206.483 214.556 206.383C214.272 206.283 213.96 206.301 213.689 206.433" fill="#4D4D4D"/>
<path d="M295.121 169.993C265.073 165.7 249.633 185.331 249.633 185.331C249.447 185.568 249.363 185.87 249.399 186.171C249.437 186.471 249.593 186.742 249.833 186.925C250.324 187.305 251.03 187.216 251.411 186.726C251.411 186.726 265.808 168.074 294.805 172.217C295.419 172.308 295.992 171.884 296.083 171.271C296.127 170.973 296.049 170.671 295.869 170.43C295.688 170.191 295.419 170.033 295.121 169.993Z" fill="#4D4D4D"/>
<path d="M270.451 183.457C261.917 184.248 255.693 186.262 255.693 186.262C255.103 186.451 254.777 187.082 254.962 187.673C255.152 188.264 255.782 188.591 256.374 188.404C256.374 188.404 280.771 180.859 298.009 189.948C298.274 190.09 298.583 190.12 298.869 190.032C299.156 189.946 299.397 189.748 299.537 189.483C299.677 189.216 299.705 188.905 299.615 188.618C299.525 188.331 299.323 188.093 299.056 187.955C289.831 183.091 278.986 182.665 270.451 183.457Z" fill="#4D4D4D"/>
<path d="M185.981 190.1C185.981 193.997 183.483 197.156 180.403 197.156C178.923 197.156 177.504 196.413 176.457 195.09C175.411 193.766 174.824 191.971 174.824 190.1C174.824 188.229 175.411 186.434 176.457 185.11C177.504 183.788 178.923 183.045 180.403 183.045C183.483 183.045 185.981 186.204 185.981 190.1Z" fill="#F2F2F2"/>
<path d="M247.975 164.488C247.975 166.359 247.387 168.154 246.341 169.477C245.296 170.801 243.875 171.544 242.397 171.544C239.315 171.544 236.816 168.384 236.816 164.488C236.816 160.591 239.315 157.432 242.397 157.432C243.875 157.432 245.296 158.175 246.341 159.498C247.387 160.822 247.975 162.616 247.975 164.488Z" fill="#F2F2F2"/>
<path d="M160.547 358.999C157.142 356.927 150.332 352.784 143.994 351.134C137.656 349.483 131.792 350.325 127.647 353.862C123.503 357.4 121.076 363.63 125.12 366.827C129.164 370.025 139.679 370.193 147.059 369.521C154.439 368.847 158.686 367.332 160.981 365.784C163.275 364.237 163.613 362.655 163.783 361.863C163.953 361.071 163.953 361.071 160.547 358.999Z" fill="#FF8080"/>
<path d="M223.172 179.929C220.852 181.351 216.211 184.195 214.565 186.405C212.918 188.614 214.266 190.186 217.597 191.121C220.928 192.055 226.243 192.354 229.648 191.717C233.052 191.082 234.55 189.509 235.336 186.853C236.122 184.197 236.196 180.455 235.486 178.321C234.777 176.187 233.279 175.664 231.482 175.962C229.684 176.26 227.589 177.383 226.54 177.945C225.492 178.506 225.492 178.506 223.172 179.929Z" fill="#FF8080"/>
<path d="M344.66 70.1573C344.842 69.6295 345.203 69.2319 345.674 68.9916C347.185 68.2205 349.835 69.0479 353.07 72.2727C355.728 74.9233 358.767 79.1734 360.911 82.2318C360.439 80.7112 359.999 78.9678 359.716 77.3977C358.943 73.1124 359.334 70.1171 359.894 68.9411C360.455 67.7656 361.184 68.4109 361.957 72.6977C362.639 76.4724 363.353 83.0715 363.13 85.3926C364.28 87.0258 364.365 87.2574 363.716 87.5996C362.919 88.0197 361.041 88.6449 357.775 87.9443C354.509 87.2437 349.854 85.2173 348.476 83.9136C347.099 82.6113 349 82.0336 351.918 82.5364C354.837 83.0387 358.771 84.622 357.524 83.4627C356.277 82.3033 349.846 78.4004 346.818 75.2656C344.735 73.1099 344.262 71.3176 344.66 70.1573Z" fill="#3DC093"/>
<path d="M389.607 126.402C381.331 121.047 366.237 108.388 359.908 99.928C353.578 91.468 356.013 87.2076 360.943 84.5908C365.872 81.974 373.297 81.0002 380.357 88.4864C387.416 95.9721 394.112 111.917 396.727 120.864C399.344 129.81 397.884 131.758 389.607 126.402Z" fill="#E89D15"/>
</svg>
