<svg width="377" height="622" viewBox="0 0 377 622" fill="none" xmlns="http://www.w3.org/2000/svg">
<g clip-path="url(#clip0_67_73976)">
<path d="M300.299 513.643C310.441 503.943 323.592 504.612 333.176 509.63C342.76 514.65 348.776 524.015 350.892 534.83C353.008 545.644 351.226 557.908 343.203 566.491C335.179 575.074 320.915 579.98 308.659 578.867C296.4 577.753 286.148 570.618 284.586 557.015C283.024 543.413 290.155 523.344 300.299 513.643Z" fill="#F2F2F2"/>
<path d="M319.096 506.046C312.657 506.001 306.005 508.188 300.297 513.645C290.155 523.345 283.02 543.414 284.582 557.016C286.145 570.619 296.399 577.754 308.655 578.867C312.717 579.235 316.996 578.941 321.199 578.071C324.209 571.177 326.811 560.494 327.014 547.4C327.205 534.997 325.238 520.445 325.153 506.723C323.183 506.296 321.152 506.056 319.096 506.046Z" fill="#CCCCCC"/>
<path d="M62.034 333.344C62.034 333.344 -7.71838 570.113 59.5423 598.775C126.805 627.436 309.906 626.19 321.117 543.944C332.328 461.698 228.945 322.128 228.945 322.128L62.034 333.344Z" fill="#F2F2F2"/>
<path d="M228.943 322.126L62.0323 333.347C62.0323 333.347 58.4881 345.424 53.7734 364.368C72.6015 376.885 92.8948 387.144 115.548 392.101C142.825 398.07 173.509 396.366 205.216 385.619C222.539 379.75 240.163 371.183 254.956 360.779C240.25 337.414 228.943 322.126 228.943 322.126Z" fill="#CCCCCC"/>
<path d="M76.4439 221.463C76.4439 221.463 -0.591772 292.243 30.8512 333.139C62.2958 374.033 230.516 378.753 268.248 328.42C305.981 278.088 232.089 221.463 232.089 221.463C232.089 221.463 383.018 128.665 375.157 65.7498C367.297 2.83467 184.923 62.6026 167.629 191.578C167.629 191.578 156.625 182.142 137.76 190.006C137.76 190.006 96.3454 -67.3954 11.9867 16.9892C-27.3484 56.3364 93.1267 146.097 76.4439 221.463Z" fill="#F2F2F2"/>
<path d="M185.394 262.179C185.394 274.476 178.615 284.445 170.251 284.445C166.234 284.445 162.384 282.098 159.545 277.923C156.703 273.748 155.109 268.084 155.109 262.179C155.109 249.882 161.888 239.915 170.251 239.915C178.615 239.915 185.394 249.882 185.394 262.179Z" fill="#4D4D4D"/>
<path d="M109.222 262.64C109.222 274.935 102.443 284.903 94.0806 284.903C85.7165 284.903 78.9375 274.935 78.9375 262.64C78.9375 256.735 80.5339 251.07 83.3729 246.894C86.2119 242.719 90.0645 240.374 94.0806 240.374C102.443 240.374 109.222 250.343 109.222 262.64Z" fill="#4D4D4D"/>
<path d="M136.003 307.091C131.23 301.649 110.005 300.811 104.169 305.839C98.331 310.865 107.883 321.752 118.492 322.167C129.102 322.581 140.776 312.534 136.003 307.091Z" fill="#FF8080"/>
<path d="M90.1364 589.52C79.0531 590.526 62.6812 596.069 55.2497 601.238C47.8182 606.406 49.3288 611.194 60.1611 614.09C70.9935 616.986 91.1435 617.994 101.47 614.592C111.795 611.192 112.298 603.38 109.656 597.71C107.014 592.04 101.22 588.512 90.1364 589.519" fill="#FF8080"/>
<path d="M268.003 605.775C262.909 602.674 252.723 596.473 243.242 594.004C233.761 591.534 224.988 592.794 218.788 598.088C212.589 603.382 208.959 612.705 215.007 617.491C221.057 622.277 236.786 622.529 247.827 621.521C258.868 620.514 265.22 618.246 268.652 615.93C272.082 613.612 272.589 611.247 272.844 610.061C273.097 608.876 273.097 608.876 268.003 605.775Z" fill="#FF8080"/>
<path d="M48.0739 310.579C31.0827 311.726 11.5754 315.557 1.90804 327.647C1.33489 328.375 1.45713 329.43 2.18085 330.008C2.90214 330.587 3.95534 330.477 4.54063 329.76C13.0075 319.171 31.6858 315.055 48.3208 313.933C64.9559 312.812 79.3631 314.506 79.3631 314.506C79.8091 314.555 80.2544 314.425 80.6049 314.146C80.953 313.867 81.1764 313.459 81.2266 313.015C81.3302 312.097 80.6769 311.266 79.7614 311.151C79.7614 311.151 65.0635 309.434 48.0739 310.579Z" fill="#4D4D4D"/>
<path d="M81.4746 326.305C81.4746 326.305 66.835 329.341 50.8298 335.25C34.8246 341.159 17.2837 349.699 11.5433 362.008C11.1499 362.844 11.5044 363.843 12.3375 364.243C13.181 364.633 14.1816 364.266 14.5734 363.422C19.4103 353.051 36.2655 344.213 51.9963 338.404C67.7279 332.596 82.1708 329.583 82.1708 329.583C83.0726 329.389 83.6482 328.501 83.462 327.597C83.2653 326.695 82.3804 326.119 81.4746 326.305Z" fill="#4D4D4D"/>
<path d="M228.664 293.213C219.153 293.465 209.513 295.343 200.875 297.685C183.6 302.362 170.23 309.063 170.23 309.063C169.401 309.482 169.068 310.493 169.484 311.323C169.903 312.152 170.914 312.487 171.745 312.069C171.745 312.069 184.826 305.521 201.743 300.94C218.66 296.357 239.286 293.899 254.092 301.487C254.923 301.904 255.932 301.57 256.353 300.741C256.774 299.918 256.452 298.908 255.634 298.481C247.545 294.336 238.174 292.959 228.664 293.213Z" fill="#4D4D4D"/>
<path d="M197.423 321.908C180.129 320.954 166.183 323.274 166.183 323.274C165.274 323.424 164.654 324.277 164.793 325.188C164.863 325.629 165.109 326.025 165.472 326.287C165.835 326.548 166.289 326.651 166.73 326.579C166.73 326.579 180.351 324.352 197.25 325.287C214.149 326.22 234.158 330.378 246.893 342.751C247.212 343.066 247.643 343.238 248.09 343.232C248.538 343.228 248.965 343.043 249.276 342.722C249.587 342.4 249.756 341.967 249.748 341.519C249.74 341.071 249.554 340.646 249.23 340.338C235.518 327.008 214.723 322.858 197.428 321.901" fill="#4D4D4D"/>
<path d="M212.688 206.926C212.688 206.926 230.208 62.944 335.956 69.2053C441.704 75.465 220.822 186.896 212.688 206.926Z" fill="#FF8080"/>
<path d="M90.6805 201.072C90.6805 201.072 66.3047 -17.1775 27.4829 38.3093C9.96059 63.3488 62.5226 80.8766 90.6805 201.072Z" fill="#FF8080"/>
<path d="M94.876 255.261C94.876 261.51 91.4298 266.575 87.1814 266.575C82.9314 266.575 79.4844 261.51 79.4844 255.261C79.4844 249.012 82.9314 243.944 87.1814 243.944C91.4298 243.944 94.876 249.012 94.876 255.261Z" fill="#F2F2F2"/>
<path d="M171.489 255.261C171.489 258.261 170.676 261.139 169.235 263.262C167.792 265.383 165.834 266.575 163.792 266.575C159.542 266.575 156.098 261.51 156.098 255.261C156.098 249.012 159.542 243.944 163.792 243.944C165.834 243.944 167.792 245.137 169.235 247.26C170.676 249.381 171.489 252.259 171.489 255.261Z" fill="#F2F2F2"/>
<path d="M150.85 453.164C159.604 449.181 168.37 444.642 175.159 437.683C176.623 436.182 177.979 434.568 179.211 432.871C180.229 431.469 181.303 429.68 180.869 427.875C180.384 425.86 178.325 425.168 176.487 425.049C174.976 424.951 173.404 425.196 171.895 424.999C172.145 424.646 172.493 424.352 172.841 424.094C173.546 423.572 174.315 423.148 175.055 422.678C178.519 420.479 182.037 417.973 184.054 414.306C185 412.587 185.467 410.171 183.643 408.817C182.935 408.291 182.074 408.067 181.219 407.913C180.737 407.826 180.224 407.768 179.743 407.633C180.33 406.875 181.124 406.283 181.923 405.76C183.147 404.96 184.453 404.298 185.721 403.575C188.275 402.119 190.465 400.098 192.322 397.83C193.925 395.871 195.134 393.676 196.574 391.608C197.824 389.812 199.245 388.049 200.955 386.668C201.244 386.435 201.555 386.207 201.879 385.999C200.727 387.604 199.621 389.084 198.711 390.741C198.709 390.744 198.708 390.747 198.706 390.75C198.682 390.794 198.658 390.838 198.635 390.881C198.631 390.888 198.628 390.894 198.624 390.9C198.603 390.941 198.581 390.981 198.559 391.022C198.555 391.031 198.55 391.04 198.545 391.05C198.525 391.088 198.504 391.127 198.484 391.165C198.479 391.176 198.474 391.186 198.468 391.196C198.449 391.234 198.429 391.272 198.41 391.311C198.405 391.321 198.399 391.331 198.394 391.341C198.374 391.381 198.354 391.421 198.334 391.461C198.33 391.47 198.325 391.478 198.321 391.487C198.273 391.584 198.226 391.682 198.179 391.781C198.174 391.792 198.168 391.804 198.163 391.816C198.145 391.852 198.128 391.889 198.111 391.926C198.104 391.942 198.096 391.958 198.089 391.975C198.073 392.009 198.057 392.043 198.042 392.078C198.035 392.093 198.028 392.108 198.022 392.123C198.007 392.156 197.992 392.19 197.977 392.223C197.969 392.243 197.96 392.263 197.951 392.283C197.938 392.312 197.925 392.342 197.913 392.371C197.904 392.392 197.895 392.412 197.886 392.433C197.873 392.465 197.859 392.498 197.845 392.531C197.838 392.548 197.831 392.565 197.824 392.582C197.81 392.615 197.797 392.648 197.783 392.682C197.775 392.701 197.767 392.72 197.759 392.74C197.745 392.776 197.73 392.813 197.716 392.849C197.71 392.863 197.705 392.877 197.699 392.892C197.679 392.943 197.659 392.995 197.639 393.047C197.635 393.058 197.631 393.068 197.627 393.079C197.611 393.121 197.596 393.163 197.58 393.205C197.574 393.221 197.568 393.238 197.562 393.254C197.549 393.291 197.536 393.327 197.523 393.363C197.516 393.383 197.509 393.403 197.501 393.424C197.49 393.456 197.478 393.489 197.467 393.522C197.459 393.545 197.451 393.567 197.444 393.59C197.433 393.62 197.423 393.651 197.413 393.681C197.405 393.705 197.397 393.729 197.389 393.754C197.379 393.784 197.369 393.815 197.359 393.846C197.351 393.87 197.343 393.894 197.336 393.919C197.326 393.949 197.316 393.98 197.307 394.011C197.299 394.035 197.292 394.059 197.284 394.083C197.273 394.119 197.262 394.156 197.251 394.192C197.245 394.211 197.24 394.229 197.234 394.248C197.219 394.299 197.204 394.351 197.189 394.402C197.188 394.407 197.187 394.412 197.185 394.416C197.096 394.73 197.012 395.045 196.935 395.362C196.909 395.467 196.883 395.573 196.859 395.679C196.81 395.891 196.763 396.103 196.718 396.315C196.563 397.059 196.437 397.809 196.337 398.563C196.321 398.684 196.306 398.805 196.291 398.926C196.268 399.116 196.246 399.307 196.226 399.498C196.201 399.737 196.178 399.975 196.158 400.214C196.14 400.421 196.124 400.628 196.11 400.835C196.087 401.16 196.068 401.486 196.054 401.812C196.009 402.79 195.998 403.768 196.013 404.744C196.065 408.301 196.31 411.726 196.17 415.174C196.17 415.184 196.169 415.194 196.169 415.203C196.158 415.457 196.146 415.711 196.131 415.965C196.125 416.058 196.12 416.151 196.113 416.244C196.102 416.411 196.091 416.577 196.078 416.743C196.064 416.916 196.049 417.089 196.033 417.263C196.025 417.359 196.015 417.455 196.006 417.551C195.98 417.802 195.953 418.053 195.922 418.305C195.89 418.565 195.855 418.827 195.816 419.089C195.778 419.35 195.736 419.613 195.69 419.875C195.66 420.05 195.628 420.226 195.594 420.402C195.527 420.753 195.453 421.105 195.371 421.458C195.254 421.968 195.126 422.474 194.988 422.978C194.942 423.147 194.895 423.314 194.847 423.482C194.75 423.816 194.649 424.15 194.543 424.482C194.49 424.648 194.436 424.813 194.381 424.979C194.299 425.226 194.213 425.473 194.125 425.719C194.067 425.883 194.007 426.047 193.946 426.21C193.916 426.292 193.885 426.373 193.854 426.455C193.792 426.617 193.729 426.78 193.665 426.942C193.536 427.265 193.403 427.587 193.266 427.907C193.231 427.987 193.197 428.067 193.162 428.146C193.057 428.386 192.949 428.624 192.839 428.86C192.656 429.255 192.466 429.646 192.268 430.034C192.15 430.266 192.028 430.498 191.905 430.728C191.822 430.881 191.739 431.033 191.654 431.186C191.612 431.262 191.569 431.337 191.527 431.413C191.398 431.64 191.267 431.866 191.133 432.09C191.044 432.239 190.953 432.388 190.862 432.536C190.77 432.684 190.678 432.831 190.584 432.978C190.116 433.711 189.619 434.427 189.094 435.123C188.989 435.262 188.883 435.4 188.776 435.538C188.562 435.813 188.343 436.084 188.119 436.353C188.032 436.458 187.944 436.562 187.856 436.666C187.817 436.712 187.778 436.757 187.74 436.802C187.689 436.862 187.637 436.922 187.586 436.982C187.549 437.025 187.511 437.068 187.474 437.111C187.421 437.171 187.368 437.232 187.315 437.293C187.275 437.338 187.236 437.382 187.196 437.427C187.144 437.485 187.092 437.544 187.04 437.603C186.999 437.648 186.958 437.694 186.917 437.74C186.867 437.795 186.817 437.851 186.766 437.906C186.722 437.955 186.677 438.004 186.632 438.053C186.584 438.105 186.536 438.157 186.488 438.209C186.443 438.257 186.397 438.306 186.352 438.355C186.304 438.406 186.256 438.458 186.207 438.509C186.16 438.559 186.113 438.608 186.066 438.658C186.019 438.707 185.973 438.756 185.926 438.804C185.876 438.856 185.826 438.907 185.777 438.959C185.732 439.005 185.688 439.05 185.643 439.096C185.591 439.149 185.539 439.202 185.487 439.255C185.443 439.3 185.399 439.344 185.355 439.388C185.304 439.44 185.252 439.492 185.2 439.543C185.155 439.589 185.109 439.635 185.063 439.68C185.011 439.731 184.959 439.782 184.907 439.833C184.863 439.877 184.818 439.92 184.773 439.964C184.719 440.016 184.665 440.069 184.611 440.121C184.568 440.162 184.525 440.203 184.482 440.245C184.425 440.299 184.368 440.353 184.311 440.407C184.272 440.444 184.233 440.481 184.194 440.518C184.131 440.577 184.069 440.635 184.007 440.693C183.973 440.725 183.939 440.756 183.904 440.788C183.839 440.849 183.773 440.909 183.706 440.97C183.672 441.001 183.638 441.032 183.604 441.063C183.538 441.124 183.471 441.184 183.405 441.244C183.374 441.272 183.342 441.3 183.311 441.328C183.238 441.393 183.166 441.458 183.093 441.522C183.074 441.539 183.055 441.555 183.037 441.572C182.953 441.645 182.869 441.719 182.784 441.793C182.774 441.802 182.764 441.81 182.754 441.819C182.662 441.899 182.57 441.978 182.478 442.057C182.474 442.06 182.47 442.064 182.466 442.067C171.509 451.436 156.522 456.016 142.241 456.4C145.192 455.585 148.063 454.433 150.85 453.164Z" fill="#EA4B94"/>
<path d="M169.875 401.358C170.009 401.953 170.13 402.55 170.235 403.151C170.265 403.322 170.294 403.494 170.322 403.666C170.349 403.838 170.376 404.01 170.401 404.182C170.477 404.699 170.542 405.217 170.595 405.737C170.63 406.083 170.661 406.43 170.686 406.777C170.712 407.124 170.732 407.471 170.747 407.819C170.762 408.167 170.772 408.514 170.777 408.863C170.78 409.037 170.781 409.211 170.78 409.385C170.78 409.472 170.78 409.559 170.779 409.646C170.774 410.168 170.758 410.69 170.729 411.211C170.714 411.472 170.697 411.733 170.676 411.993C170.663 412.167 170.647 412.34 170.631 412.514C170.582 413.034 170.52 413.554 170.446 414.072C167.998 431.125 156.063 445.931 141.883 455.193C143.969 452.952 145.81 450.466 147.519 447.924C152.885 439.944 157.972 431.484 160.106 421.998C160.566 419.953 160.874 417.867 161.034 415.776C161.166 414.049 161.143 411.962 159.828 410.653C158.359 409.191 156.242 409.681 154.614 410.543C153.276 411.251 152.066 412.284 150.678 412.908C150.706 412.476 150.848 412.042 151.009 411.641C151.336 410.827 151.768 410.062 152.152 409.275C153.949 405.587 155.632 401.608 155.427 397.427C155.331 395.468 154.464 393.166 152.2 392.968C151.321 392.891 150.471 393.152 149.662 393.469C149.206 393.648 148.739 393.868 148.258 394.005C148.361 393.052 148.726 392.131 149.133 391.266C149.757 389.944 150.521 388.696 151.222 387.415C152.634 384.837 153.44 381.967 153.832 379.062C154.171 376.554 154.05 374.051 154.192 371.535C154.315 369.35 154.601 367.104 155.334 365.032C155.457 364.681 155.603 364.325 155.769 363.978C155.63 365.948 155.464 367.788 155.557 369.675C155.557 369.679 155.558 369.683 155.558 369.687C155.56 369.738 155.563 369.789 155.566 369.84L155.567 369.852C155.569 369.9 155.572 369.948 155.576 369.997C155.576 370.006 155.577 370.016 155.577 370.026C155.58 370.069 155.583 370.113 155.586 370.157C155.587 370.168 155.588 370.179 155.589 370.19C155.592 370.234 155.596 370.279 155.599 370.323C155.6 370.333 155.601 370.343 155.602 370.352C155.606 370.404 155.611 370.456 155.615 370.508C155.615 370.509 155.616 370.51 155.616 370.511C155.626 370.622 155.637 370.734 155.649 370.845C155.649 370.846 155.649 370.846 155.65 370.847C155.655 370.899 155.661 370.951 155.667 371.003C155.669 371.018 155.671 371.032 155.673 371.047C155.678 371.086 155.682 371.125 155.687 371.164C155.69 371.182 155.692 371.199 155.694 371.216C155.699 371.252 155.704 371.288 155.709 371.323C155.711 371.343 155.714 371.363 155.717 371.384C155.722 371.42 155.728 371.456 155.733 371.493C155.735 371.509 155.738 371.525 155.74 371.541C155.746 371.581 155.752 371.621 155.759 371.661C155.761 371.676 155.763 371.692 155.766 371.707C155.772 371.748 155.779 371.789 155.786 371.83C155.789 371.844 155.791 371.858 155.793 371.871C155.8 371.915 155.808 371.959 155.816 372.002C155.818 372.014 155.82 372.026 155.822 372.038C155.832 372.092 155.842 372.146 155.852 372.2C155.855 372.214 155.858 372.228 155.86 372.242C155.869 372.284 155.877 372.326 155.886 372.369C155.889 372.385 155.892 372.4 155.895 372.416C155.903 372.454 155.911 372.492 155.919 372.531C155.924 372.553 155.928 372.575 155.933 372.597C155.94 372.63 155.948 372.663 155.955 372.696C155.96 372.718 155.965 372.74 155.97 372.762C155.978 372.797 155.986 372.831 155.994 372.866C155.999 372.888 156.004 372.91 156.009 372.932C156.017 372.966 156.026 373 156.034 373.034C156.039 373.055 156.044 373.076 156.049 373.098C156.058 373.133 156.067 373.168 156.076 373.204C156.082 373.226 156.087 373.248 156.093 373.27C156.103 373.309 156.114 373.349 156.125 373.389C156.129 373.404 156.132 373.419 156.137 373.434C156.152 373.491 156.168 373.549 156.184 373.606C156.537 374.862 156.984 376.088 157.504 377.284C157.677 377.683 157.858 378.078 158.046 378.47C158.187 378.764 158.333 379.056 158.482 379.346C158.581 379.54 158.682 379.732 158.784 379.924C158.887 380.116 158.991 380.307 159.096 380.497C159.202 380.687 159.309 380.877 159.417 381.065C159.796 381.725 160.191 382.375 160.598 383.016C161.698 384.744 162.829 386.401 163.912 388.071C164.007 388.216 164.1 388.362 164.194 388.507C164.521 389.016 164.843 389.527 165.158 390.042C165.338 390.336 165.516 390.632 165.69 390.929C165.734 391.004 165.778 391.078 165.821 391.153C165.994 391.451 166.165 391.751 166.332 392.054C166.374 392.129 166.416 392.205 166.457 392.281C166.623 392.585 166.785 392.891 166.943 393.2C167.062 393.432 167.179 393.665 167.293 393.901C167.484 394.292 167.668 394.69 167.845 395.092C168.022 395.495 168.192 395.904 168.353 396.319C168.418 396.485 168.481 396.653 168.543 396.821C168.637 397.074 168.727 397.329 168.814 397.586C169.073 398.356 169.308 399.133 169.518 399.917C169.601 400.227 169.68 400.537 169.755 400.849C169.796 401.018 169.836 401.188 169.875 401.358Z" fill="#EA4B94"/>
<path d="M50.3213 443.631C50.2293 443.549 50.1368 443.468 50.0438 443.388C49.72 443.108 49.3896 442.836 49.0523 442.572C49.0053 442.535 48.9583 442.498 48.9113 442.462C48.9019 442.455 48.8926 442.448 48.8831 442.441C48.8457 442.413 48.8082 442.384 48.7708 442.356C48.7576 442.346 48.7444 442.336 48.7311 442.326C48.6981 442.302 48.665 442.277 48.6319 442.253C48.6167 442.242 48.6014 442.231 48.5861 442.219C48.5541 442.196 48.5223 442.173 48.4904 442.15C48.4747 442.139 48.4591 442.128 48.4434 442.117C48.4126 442.094 48.3817 442.073 48.3508 442.051C48.3344 442.039 48.318 442.028 48.3015 442.016C48.2715 441.995 48.2413 441.974 48.2112 441.954C48.194 441.942 48.1768 441.93 48.1596 441.918C48.1293 441.898 48.099 441.877 48.0687 441.857C48.052 441.845 48.0353 441.834 48.0187 441.823C47.9246 441.76 47.8305 441.699 47.7362 441.638C47.7354 441.638 47.7344 441.637 47.7334 441.636C47.6887 441.608 47.6438 441.58 47.5991 441.551C47.5842 441.542 47.5695 441.533 47.5547 441.524C47.5226 441.504 47.4904 441.484 47.4582 441.464C47.4409 441.454 47.4236 441.443 47.4063 441.433C47.3767 441.415 47.3473 441.397 47.3179 441.379C47.3005 441.369 47.283 441.358 47.2656 441.348C47.2348 441.33 47.204 441.312 47.1733 441.293C47.1569 441.284 47.1404 441.274 47.1241 441.265C47.0919 441.246 47.0597 441.227 47.0275 441.209C47.0131 441.2 46.9986 441.192 46.984 441.184C46.949 441.164 46.9139 441.144 46.8786 441.124C46.8666 441.118 46.8545 441.111 46.8424 441.104C46.8006 441.081 46.7587 441.057 46.7169 441.034C46.7116 441.031 46.7062 441.029 46.7008 441.026C46.6039 440.973 46.5068 440.921 46.4096 440.87C46.4035 440.867 46.3972 440.863 46.3909 440.86C46.3494 440.838 46.3078 440.817 46.2662 440.796C46.2558 440.79 46.2454 440.785 46.2351 440.78C46.1969 440.76 46.1587 440.741 46.1204 440.721L46.09 440.706C46.0511 440.687 46.0122 440.667 45.9733 440.648C45.9638 440.644 45.9541 440.639 45.9446 440.634C45.9048 440.615 45.8649 440.595 45.825 440.576C45.816 440.572 45.807 440.568 45.798 440.563C45.7555 440.543 45.713 440.523 45.6706 440.503C45.6653 440.5 45.6601 440.498 45.6549 440.495C43.9454 439.691 42.1806 439.144 40.306 438.524C40.6905 438.501 41.0757 438.503 41.4469 438.522C43.6416 438.633 45.8278 439.224 47.8949 439.941C50.2757 440.767 52.5442 441.832 54.9924 442.474C57.8282 443.216 60.7886 443.563 63.7099 443.239C65.1615 443.078 66.6068 442.846 68.0669 442.773C69.021 442.726 70.0119 442.738 70.9323 443.006C70.6223 443.399 70.2416 443.747 69.9031 444.1C69.3017 444.728 68.7366 445.415 68.4731 446.257C67.7947 448.425 69.593 450.104 71.3685 450.938C75.1567 452.719 79.4763 452.677 83.5709 452.419C84.4454 452.363 85.3169 452.254 86.1947 452.262C86.6269 452.266 87.0813 452.299 87.4915 452.438C86.3863 453.484 84.971 454.21 83.8066 455.178C82.3896 456.355 81.1309 458.126 81.924 460.041C82.6341 461.756 84.5552 462.571 86.2024 463.106C88.1966 463.754 90.2428 464.263 92.3096 464.616C101.893 466.253 111.652 464.769 121.075 462.844C124.075 462.231 127.075 461.475 129.942 460.399C118.063 468.556 103.093 473.682 88.6043 472.428C88.5887 472.427 88.573 472.425 88.5573 472.424C88.4496 472.415 88.342 472.405 88.2343 472.394C88.2055 472.392 88.1768 472.389 88.148 472.386C88.0506 472.377 87.9532 472.367 87.8558 472.357C87.816 472.353 87.7762 472.349 87.7365 472.345C87.6497 472.336 87.5629 472.327 87.4763 472.317C87.4248 472.312 87.3733 472.306 87.3219 472.3C87.2414 472.291 87.161 472.282 87.0805 472.272C87.0253 472.266 86.9702 472.259 86.9152 472.252C86.8353 472.243 86.7555 472.233 86.6757 472.223C86.6195 472.215 86.5633 472.208 86.5072 472.201C86.431 472.191 86.3547 472.181 86.2786 472.171C86.2178 472.162 86.157 472.154 86.0963 472.146C86.0228 472.136 85.9494 472.125 85.8759 472.115C85.8139 472.106 85.7519 472.097 85.6899 472.088C85.617 472.077 85.5439 472.066 85.4709 472.055C85.4081 472.045 85.3455 472.035 85.2828 472.026C85.2121 472.014 85.1412 472.003 85.0705 471.992C85.0031 471.981 84.9358 471.97 84.8684 471.959C84.8025 471.948 84.7367 471.937 84.6709 471.926C84.601 471.914 84.5311 471.902 84.4612 471.889C84.3952 471.878 84.3293 471.866 84.2635 471.855C84.1956 471.843 84.1276 471.83 84.0597 471.818C83.9931 471.805 83.9264 471.793 83.8597 471.781C83.7893 471.767 83.719 471.754 83.6486 471.74C83.5848 471.728 83.5212 471.716 83.4573 471.703C83.3864 471.689 83.3156 471.675 83.2447 471.66C83.181 471.648 83.1172 471.635 83.0534 471.622C82.9809 471.607 82.9083 471.591 82.8357 471.576C82.774 471.563 82.7123 471.55 82.6506 471.537C82.5768 471.521 82.503 471.505 82.4292 471.488C82.3689 471.475 82.3086 471.462 82.2483 471.448C82.1747 471.432 82.1012 471.415 82.0277 471.398C81.9664 471.384 81.9052 471.37 81.844 471.356C81.7648 471.337 81.6856 471.318 81.6064 471.299C81.5526 471.286 81.4987 471.274 81.445 471.26C81.3115 471.228 81.1781 471.195 81.045 471.161C80.6219 471.054 80.2014 470.939 79.7836 470.815C79.6163 470.765 79.4497 470.715 79.2834 470.662C79.1171 470.61 78.9513 470.557 78.786 470.502C78.6207 470.447 78.4557 470.391 78.2914 470.334C78.2092 470.306 78.1271 470.277 78.0451 470.247C77.7991 470.159 77.5542 470.069 77.3104 469.975C77.2291 469.944 77.148 469.913 77.067 469.881C76.9049 469.818 76.7434 469.753 76.5824 469.687C76.4213 469.621 76.2608 469.554 76.1008 469.485C75.7808 469.348 75.4629 469.207 75.1472 469.06C74.9893 468.987 74.832 468.913 74.6752 468.837C74.44 468.724 74.2061 468.608 73.9735 468.49C73.8185 468.411 73.664 468.331 73.51 468.25C73.2792 468.128 73.0495 468.003 72.8214 467.877C72.5932 467.75 72.3664 467.62 72.1408 467.489C71.9153 467.357 71.6913 467.223 71.4687 467.086C71.3203 466.995 71.1725 466.903 71.0253 466.81C70.8782 466.717 70.7317 466.623 70.5858 466.528C70.094 466.206 69.6096 465.873 69.1332 465.53C69.0981 465.504 69.0632 465.479 69.0282 465.453C68.8495 465.324 68.672 465.192 68.4956 465.059C68.4657 465.036 68.4357 465.014 68.4059 464.991C67.7265 464.476 67.0644 463.938 66.4209 463.378C65.189 462.308 64.0913 461.168 63.0765 459.98C62.5692 459.385 62.0826 458.779 61.6104 458.163C61.5055 458.026 61.4012 457.888 61.2978 457.75C59.4851 455.337 57.8686 452.784 56.0736 450.236C55.3868 449.261 54.6663 448.305 53.9051 447.382C53.6974 447.13 53.4868 446.881 53.273 446.634C53.1305 446.47 52.9866 446.307 52.8412 446.146C52.4753 445.739 52.1001 445.34 51.7151 444.952C51.5648 444.8 51.4129 444.65 51.2595 444.502C51.1058 444.353 50.9504 444.206 50.7935 444.06C50.7871 444.054 50.7808 444.048 50.7745 444.042C50.6249 443.903 50.4738 443.766 50.3213 443.631Z" fill="#EA4B94"/>
<path d="M65.6264 394.194C67.4372 395.439 68.9892 397.088 70.3736 398.783C71.9679 400.734 73.3417 402.83 75.0906 404.66C77.1162 406.779 79.4555 408.626 82.1132 409.881C83.4337 410.505 84.7862 411.065 86.0678 411.768C86.9053 412.228 87.7426 412.758 88.386 413.468C87.9162 413.64 87.4098 413.737 86.9359 413.861C86.0947 414.08 85.2534 414.369 84.5876 414.948C82.8734 416.439 83.525 418.811 84.5996 420.452C86.8924 423.954 90.593 426.183 94.2153 428.109C94.9891 428.521 95.7884 428.885 96.5319 429.351C96.8981 429.581 97.2675 429.848 97.5441 430.181C96.0546 430.492 94.4686 430.369 92.9698 430.582C91.146 430.842 89.1458 431.691 88.8173 433.737C88.5231 435.57 89.732 437.271 90.8541 438.59C92.2127 440.188 93.6888 441.693 95.2637 443.077C102.567 449.495 111.656 453.347 120.689 456.646C123.566 457.697 126.517 458.625 129.522 459.211C112.606 460.058 94.2472 455.1 82.2399 442.746C80.7799 441.244 79.4716 439.607 78.3186 437.866C78.2706 437.793 78.2227 437.721 78.1753 437.648C77.9853 437.356 77.7996 437.062 77.6183 436.765C77.3462 436.319 77.084 435.868 76.8316 435.41C76.7053 435.182 76.5816 434.952 76.4603 434.721C75.7858 433.435 75.1878 432.109 74.6667 430.752C74.3756 429.994 74.1083 429.227 73.8658 428.453C73.8387 428.366 73.8121 428.28 73.7858 428.193C73.7335 428.02 73.683 427.848 73.6341 427.675C73.5852 427.502 73.5383 427.33 73.4929 427.157C73.4475 426.985 73.4039 426.813 73.3616 426.64C73.3195 426.468 73.2789 426.296 73.2399 426.124C73.2205 426.038 73.2012 425.952 73.1825 425.866C73.1485 425.71 73.116 425.554 73.0843 425.399C73.0607 425.282 73.0376 425.165 73.0152 425.049C72.9878 424.906 72.9613 424.763 72.9356 424.62C72.9157 424.509 72.8964 424.398 72.8777 424.287C72.836 424.041 72.7967 423.794 72.76 423.548C72.7343 423.377 72.7099 423.205 72.6865 423.034C72.6173 422.526 72.5575 422.018 72.5053 421.51C72.4958 421.418 72.4865 421.325 72.4774 421.232C72.4608 421.06 72.4447 420.889 72.4296 420.717C72.1719 417.797 72.1303 414.859 71.9428 411.837C71.8688 410.647 71.7566 409.455 71.5922 408.27C71.5772 408.162 71.5619 408.054 71.5459 407.947C71.5143 407.732 71.4809 407.517 71.4455 407.302C71.4278 407.195 71.4097 407.088 71.3912 406.98C71.2797 406.338 71.1511 405.698 71.0032 405.063C70.9785 404.958 70.9533 404.852 70.9276 404.746C70.8504 404.43 70.7681 404.115 70.6808 403.801C70.4768 403.069 70.2446 402.344 69.9804 401.63C69.9596 401.574 69.9386 401.518 69.9174 401.463C69.9122 401.449 69.9068 401.436 69.9017 401.422C69.8866 401.383 69.8716 401.344 69.8564 401.306C69.8469 401.281 69.8371 401.257 69.8275 401.233C69.8159 401.204 69.8043 401.175 69.7927 401.146C69.7824 401.121 69.7721 401.096 69.7618 401.071C69.7504 401.043 69.7389 401.015 69.7274 400.987C69.7173 400.963 69.7071 400.939 69.697 400.915C69.6841 400.884 69.6711 400.854 69.6581 400.824C69.649 400.803 69.64 400.782 69.6308 400.761C69.6176 400.73 69.6042 400.7 69.5909 400.67C69.5809 400.647 69.5709 400.624 69.5608 400.602C69.548 400.573 69.535 400.544 69.522 400.516C69.512 400.494 69.502 400.471 69.4919 400.449C69.4764 400.415 69.4607 400.382 69.445 400.348C69.4373 400.331 69.4296 400.315 69.4217 400.298C69.3985 400.249 69.375 400.199 69.3513 400.15C69.344 400.135 69.3364 400.12 69.329 400.105C69.3121 400.07 69.2953 400.035 69.2784 400.001C69.2692 399.983 69.2598 399.964 69.2505 399.945C69.2353 399.915 69.2201 399.885 69.2047 399.854C69.1947 399.834 69.1844 399.815 69.1743 399.795C69.1591 399.765 69.1438 399.735 69.1285 399.706C69.1189 399.687 69.1094 399.669 69.0998 399.651C69.0836 399.62 69.0672 399.588 69.0508 399.558C69.0415 399.54 69.032 399.522 69.0226 399.505C69.0062 399.474 68.9896 399.443 68.973 399.413C68.9638 399.396 68.9545 399.379 68.9451 399.362C68.9272 399.329 68.9091 399.296 68.8909 399.264C68.8828 399.249 68.8749 399.234 68.8668 399.22C68.8447 399.18 68.8225 399.141 68.8 399.102C68.796 399.095 68.792 399.087 68.7877 399.08C68.7334 398.985 68.6782 398.89 68.6225 398.797C68.6177 398.789 68.6129 398.781 68.6082 398.773C68.5853 398.735 68.5624 398.696 68.5394 398.658C68.5325 398.647 68.5257 398.636 68.5188 398.625C68.4977 398.59 68.4766 398.556 68.4554 398.521C68.4473 398.508 68.4391 398.495 68.431 398.482C68.4108 398.449 68.3904 398.417 68.37 398.384C68.3619 398.372 68.3539 398.359 68.3458 398.346C68.3229 398.31 68.3001 398.274 68.277 398.238C68.2725 398.231 68.2678 398.224 68.2632 398.216C68.2368 398.175 68.2103 398.135 68.1838 398.094C68.1811 398.09 68.1785 398.086 68.1757 398.082C67.1414 396.5 65.9252 395.109 64.654 393.598C64.9929 393.78 65.32 393.984 65.6264 394.194Z" fill="#EA4B94"/>
<path d="M131.018 458.972C130.84 458.89 130.662 458.807 130.485 458.724C130.397 458.682 130.308 458.64 130.22 458.598C125.453 456.319 121.064 453.474 117.104 450.201C117.031 450.141 116.957 450.08 116.884 450.019C116.738 449.897 116.593 449.775 116.448 449.652C116.375 449.59 116.303 449.529 116.231 449.467C114.716 448.17 113.266 446.809 111.885 445.393C109.714 443.167 107.712 440.805 105.891 438.337C100.994 431.702 97.2773 424.029 97.3164 415.784C97.3324 412.397 97.972 409.048 98.9453 405.723C100.56 400.208 103.094 394.762 105.227 389.332C105.253 389.264 105.28 389.196 105.306 389.128C105.321 389.091 105.335 389.054 105.349 389.018C105.361 388.987 105.373 388.956 105.385 388.925C105.401 388.884 105.417 388.844 105.432 388.803C105.444 388.774 105.455 388.744 105.467 388.714C105.48 388.68 105.493 388.646 105.506 388.613C105.521 388.572 105.537 388.531 105.552 388.49C105.564 388.461 105.575 388.431 105.586 388.401C105.6 388.367 105.613 388.332 105.626 388.298C105.641 388.256 105.657 388.214 105.673 388.172C105.68 388.154 105.687 388.137 105.693 388.119C107.124 384.318 108.315 380.35 108.841 376.436C108.841 376.439 108.841 376.442 108.842 376.445C109.028 379.9 108.569 383.404 107.804 386.841C106.415 393.091 104.201 399.16 103.348 405.525C102.871 409.078 102.944 412.595 103.441 416.142C104.098 420.826 105.427 425.403 107.569 429.628C108.374 431.216 109.362 432.674 110.291 434.188C110.993 435.331 111.671 436.489 112.423 437.601C113.793 439.628 115.801 442.436 118.538 442.442C120.943 442.447 122.363 440.455 122.809 438.308C123.284 436.019 123.072 433.652 123.236 431.334C123.259 431.02 123.328 430.438 123.427 429.997C123.453 429.883 123.483 429.771 123.513 429.659L123.552 429.53L123.56 429.504C123.626 429.332 123.707 429.172 123.794 429.011L123.807 428.986L123.891 428.879L124.007 428.757L124.141 428.654L124.225 428.604C124.32 428.569 124.416 428.539 124.511 428.504L124.545 428.491L124.561 428.492C124.63 428.488 124.697 428.486 124.765 428.485L124.862 428.499C124.922 428.511 124.951 428.515 124.964 428.515L125.01 428.541C125.074 428.574 125.139 428.605 125.202 428.637L125.307 428.7L125.314 428.706C125.376 428.756 125.438 428.804 125.498 428.855C125.585 428.93 125.668 429.01 125.748 429.092L125.883 429.238C126.011 429.39 126.133 429.549 126.249 429.711C126.865 430.573 127.353 431.524 127.832 432.467C128.784 434.343 129.635 436.459 131.152 437.965C131.771 438.58 132.579 439.034 133.473 439.01C134.528 438.981 135.457 438.311 136.012 437.448C136.613 436.513 136.798 435.363 136.893 434.276C137.007 432.979 136.985 431.677 137.021 430.377C137.038 429.777 137.063 429.215 137.134 428.663C137.17 428.384 137.215 428.106 137.276 427.831C137.304 427.708 137.334 427.584 137.369 427.463C137.4 427.354 137.441 427.227 137.439 427.233C137.628 426.723 137.758 426.489 138.119 426.158L138.125 426.15L138.184 426.111C138.235 426.076 138.284 426.04 138.336 426.008C138.382 425.98 138.616 425.866 138.475 425.927C138.74 425.812 138.775 425.791 139.084 425.795C139.434 425.8 139.932 426.029 140.273 426.292C140.771 426.677 141.206 427.136 141.627 427.603C142.463 428.53 143.268 429.586 144.397 430.178C146.146 431.094 147.707 430.165 148.761 428.804C148.45 433.051 147.735 437.308 146.593 441.491C146.593 441.492 146.592 441.493 146.592 441.493C146.417 442.134 146.232 442.772 146.037 443.409C146.036 443.415 146.034 443.42 146.032 443.426C145.886 443.902 145.735 444.376 145.578 444.849C145.577 444.851 145.576 444.854 145.575 444.856C145.524 445.01 145.473 445.164 145.42 445.317C145.417 445.326 145.414 445.335 145.411 445.344C145.251 445.812 145.086 446.278 144.916 446.743C144.913 446.75 144.911 446.757 144.908 446.763C144.854 446.912 144.798 447.061 144.743 447.209C144.737 447.223 144.732 447.237 144.727 447.25C144.672 447.398 144.615 447.545 144.559 447.693C144.556 447.701 144.552 447.709 144.549 447.717C144.431 448.023 144.311 448.328 144.188 448.632C144.186 448.638 144.184 448.644 144.181 448.65C144.122 448.795 144.063 448.94 144.004 449.085C143.996 449.104 143.988 449.123 143.98 449.141C143.921 449.285 143.861 449.428 143.8 449.572C143.797 449.58 143.793 449.588 143.79 449.597C143.665 449.892 143.538 450.186 143.408 450.48C143.401 450.497 143.393 450.515 143.385 450.532C143.324 450.671 143.262 450.809 143.2 450.947C143.191 450.967 143.182 450.988 143.173 451.008C143.109 451.148 143.045 451.289 142.981 451.429C142.975 451.44 142.97 451.451 142.965 451.462C142.83 451.755 142.693 452.046 142.553 452.337C142.547 452.351 142.54 452.365 142.533 452.379C142.467 452.516 142.401 452.652 142.334 452.789C142.323 452.812 142.312 452.834 142.3 452.857C142.234 452.993 142.167 453.128 142.099 453.263C142.091 453.28 142.082 453.296 142.074 453.313C142.003 453.453 141.932 453.594 141.86 453.735L141.859 453.738C141.787 453.878 141.715 454.017 141.643 454.156C141.633 454.175 141.623 454.194 141.613 454.213C141.543 454.346 141.473 454.479 141.403 454.612C141.391 454.635 141.378 454.658 141.366 454.681C141.295 454.814 141.224 454.947 141.152 455.08C141.142 455.098 141.132 455.116 141.122 455.134C140.971 455.412 140.818 455.688 140.663 455.964C140.652 455.983 140.641 456.002 140.631 456.021C140.556 456.153 140.481 456.285 140.405 456.416C140.403 456.421 140.4 456.426 140.397 456.431C140.388 456.447 140.379 456.462 140.37 456.478C140.293 456.611 140.217 456.743 140.139 456.874C140.129 456.893 140.118 456.911 140.107 456.93C140.027 457.065 139.947 457.201 139.866 457.335C139.866 457.337 139.865 457.339 139.864 457.34C139.783 457.475 139.702 457.609 139.62 457.744C139.608 457.764 139.596 457.783 139.584 457.803C139.505 457.932 139.426 458.061 139.346 458.189C139.333 458.212 139.319 458.234 139.305 458.256C139.225 458.385 139.144 458.514 139.062 458.643C139.05 458.662 139.038 458.681 139.026 458.7C138.941 458.834 138.856 458.968 138.77 459.101C138.299 459.832 137.766 460.587 137.128 461.217C136.943 461.189 136.759 461.154 136.575 461.113C135.88 460.958 135.198 460.72 134.556 460.471C134.046 460.273 133.539 460.069 133.037 459.859C132.902 459.803 132.768 459.746 132.635 459.689C132.286 459.541 131.939 459.389 131.595 459.234C131.581 459.228 131.567 459.222 131.554 459.216C131.375 459.136 131.196 459.054 131.018 458.972Z" fill="#EA4B94"/>
<path d="M103.349 405.525C104.203 399.16 106.416 393.09 107.806 386.841C108.57 383.404 109.03 379.9 108.843 376.445C108.919 375.885 108.98 375.327 109.028 374.77C112.219 378.462 116.406 381.597 120.663 384.314C125.523 387.415 130.708 390.298 135.22 393.753C138.026 395.903 140.572 398.274 142.616 401.058C147.496 407.704 149.002 416.096 148.942 424.342C148.931 425.827 148.869 427.316 148.76 428.807C147.706 430.166 146.147 431.093 144.399 430.177C143.27 429.586 142.464 428.53 141.628 427.602C141.208 427.136 140.773 426.677 140.275 426.292C139.934 426.028 139.436 425.8 139.086 425.795C138.777 425.791 138.741 425.811 138.477 425.927C138.618 425.865 138.383 425.979 138.338 426.008C138.286 426.04 138.237 426.076 138.186 426.11L138.127 426.15L138.121 426.157C137.76 426.488 137.629 426.722 137.44 427.233C137.443 427.226 137.402 427.353 137.371 427.462C137.336 427.584 137.306 427.707 137.278 427.831C137.217 428.105 137.171 428.383 137.136 428.662C137.065 429.215 137.04 429.777 137.023 430.377C136.987 431.677 137.009 432.979 136.895 434.276C136.8 435.363 136.615 436.513 136.013 437.448C135.458 438.31 134.53 438.981 133.474 439.009C132.581 439.033 131.773 438.579 131.154 437.965C129.636 436.458 128.786 434.343 127.834 432.467C127.355 431.524 126.867 430.573 126.251 429.71C126.135 429.548 126.013 429.39 125.884 429.238L125.75 429.092C125.67 429.01 125.587 428.93 125.5 428.855C125.44 428.803 125.377 428.755 125.315 428.706L125.308 428.7L125.204 428.637C125.14 428.604 125.075 428.573 125.012 428.54L124.966 428.514C124.953 428.514 124.924 428.511 124.863 428.498L124.767 428.484C124.699 428.486 124.632 428.488 124.563 428.491L124.547 428.49L124.513 428.504C124.418 428.539 124.321 428.568 124.227 428.603L124.143 428.653L124.008 428.756L123.893 428.878L123.809 428.986L123.796 429.01C123.709 429.172 123.628 429.332 123.562 429.503L123.554 429.53L123.515 429.659C123.484 429.771 123.454 429.883 123.429 429.997C123.33 430.437 123.261 431.02 123.238 431.333C123.073 433.651 123.286 436.018 122.811 438.308C122.365 440.455 120.945 442.447 118.539 442.441C115.802 442.435 113.795 439.628 112.425 437.601C111.673 436.489 110.995 435.331 110.293 434.187C109.364 432.674 108.376 431.216 107.571 429.627C105.429 425.403 104.1 420.826 103.443 416.142C102.946 412.594 102.873 409.077 103.349 405.525Z" fill="#EE76AB"/>
<path d="M136.576 461.113C136.478 461.789 136.374 462.463 136.27 463.138C138.166 463.985 138.987 467.407 139.418 469.041C140.668 473.785 141.26 478.722 141.794 483.589C142.384 488.967 142.795 494.366 143.093 499.768C143.288 503.292 143.499 506.839 143.449 510.37C143.431 511.631 143.281 512.892 143.151 514.144C142.89 516.666 142.543 519.181 142.03 521.665C141.541 524.031 140.904 526.375 140.064 528.643C139.814 529.317 139.514 529.98 139.311 530.671C139.271 530.805 139.238 530.939 139.21 531.076C139.159 531.33 139.211 531.047 139.197 531.22L139.201 531.346L139.207 531.377C139.251 531.594 139.193 531.43 139.301 531.582C139.394 531.713 139.568 531.892 139.802 532.072C140.129 532.323 140.499 532.526 140.857 532.728C141.475 533.075 141.502 533.827 141.093 534.336C139.379 536.47 137.099 537.963 135.095 539.791C134.319 540.498 133.607 541.265 132.901 542.038C132.194 542.526 131.49 543.019 130.796 543.527C135.322 523.441 137.13 502.744 136.137 482.179C135.774 474.663 135.024 467.097 133.037 459.859C133.539 460.069 134.046 460.274 134.556 460.471C135.198 460.72 135.88 460.958 136.576 461.113Z" fill="#47AB34"/>
<path d="M135.098 539.791C137.102 537.964 139.383 536.47 141.097 534.336C141.505 533.827 141.478 533.076 140.861 532.728C140.503 532.526 140.133 532.323 139.806 532.072C139.572 531.892 139.397 531.713 139.305 531.583C139.196 531.43 139.255 531.594 139.21 531.377L139.205 531.346L139.2 531.22C139.214 531.047 139.162 531.33 139.214 531.076C139.241 530.939 139.275 530.805 139.314 530.671C139.518 529.98 139.818 529.318 140.068 528.643C140.908 526.376 141.544 524.032 142.034 521.665C142.547 519.181 142.893 516.667 143.155 514.145C143.285 512.892 143.434 511.631 143.452 510.371C143.503 506.839 143.291 503.293 143.097 499.768C142.799 494.366 142.388 488.967 141.798 483.589C141.264 478.722 140.672 473.786 139.421 469.042C138.991 467.407 138.17 463.985 136.273 463.138C136.378 462.464 136.481 461.789 136.579 461.113C136.763 461.154 136.947 461.19 137.132 461.218C137.77 460.588 138.302 459.833 138.774 459.102C138.86 458.968 138.945 458.834 139.03 458.701C139.042 458.682 139.054 458.663 139.066 458.644C139.148 458.515 139.228 458.386 139.309 458.257C139.323 458.234 139.337 458.212 139.35 458.19C139.389 458.128 139.427 458.065 139.466 458.003C140.73 461.751 141.992 466.562 143.024 472.318C143.024 472.321 143.025 472.324 143.025 472.327C143.042 472.418 143.058 472.509 143.074 472.6C143.076 472.609 143.077 472.618 143.079 472.627C143.093 472.709 143.108 472.792 143.122 472.875C143.126 472.894 143.129 472.913 143.132 472.932C143.147 473.013 143.161 473.094 143.175 473.176C143.178 473.195 143.181 473.214 143.184 473.233C143.198 473.308 143.211 473.384 143.223 473.46C143.228 473.487 143.233 473.515 143.237 473.542C143.25 473.616 143.262 473.69 143.275 473.765C143.279 473.791 143.284 473.817 143.288 473.844C143.3 473.918 143.313 473.993 143.325 474.068C143.329 474.093 143.333 474.117 143.337 474.141C143.351 474.221 143.364 474.3 143.377 474.38C143.379 474.396 143.382 474.411 143.384 474.426C143.399 474.515 143.413 474.604 143.427 474.693C143.429 474.7 143.43 474.706 143.431 474.713C143.445 474.806 143.46 474.898 143.475 474.992C143.477 475.007 143.48 475.022 143.482 475.037C143.573 475.613 143.662 476.199 143.748 476.792C143.752 476.816 143.755 476.839 143.758 476.863C143.784 477.038 143.809 477.213 143.834 477.389C143.839 477.431 143.845 477.473 143.851 477.514C143.859 477.571 143.867 477.628 143.875 477.685C143.882 477.735 143.889 477.784 143.896 477.834C143.904 477.897 143.913 477.96 143.921 478.023C143.928 478.068 143.934 478.113 143.94 478.159C143.949 478.226 143.958 478.292 143.967 478.359C143.973 478.402 143.979 478.444 143.984 478.487C143.992 478.549 144 478.61 144.009 478.672C144.015 478.721 144.022 478.771 144.028 478.821C144.037 478.884 144.045 478.947 144.053 479.009C144.059 479.057 144.065 479.106 144.071 479.154C144.079 479.215 144.087 479.277 144.095 479.339C144.101 479.389 144.108 479.438 144.114 479.488C144.121 479.545 144.128 479.602 144.135 479.659C144.143 479.717 144.15 479.775 144.157 479.833C144.164 479.891 144.172 479.95 144.179 480.009C144.185 480.058 144.191 480.107 144.197 480.156C144.204 480.218 144.212 480.28 144.219 480.342C144.226 480.399 144.233 480.457 144.24 480.514C144.246 480.566 144.252 480.617 144.258 480.668C144.266 480.735 144.274 480.802 144.282 480.869C144.287 480.918 144.293 480.967 144.299 481.017C144.305 481.068 144.311 481.119 144.317 481.171C144.324 481.24 144.332 481.308 144.34 481.377C144.345 481.421 144.35 481.465 144.355 481.508C144.362 481.574 144.37 481.64 144.377 481.706C144.384 481.768 144.391 481.831 144.398 481.893C144.403 481.945 144.409 481.998 144.415 482.05C144.422 482.119 144.43 482.187 144.437 482.255C144.442 482.303 144.447 482.35 144.452 482.398C144.458 482.451 144.464 482.503 144.469 482.556C144.478 482.644 144.488 482.732 144.497 482.82C144.53 483.144 144.563 483.47 144.595 483.799C144.6 483.847 144.605 483.896 144.609 483.944C144.617 484.019 144.624 484.094 144.631 484.169C144.634 484.203 144.637 484.236 144.64 484.27C144.648 484.354 144.656 484.439 144.664 484.524C144.668 484.568 144.673 484.613 144.677 484.657C144.683 484.731 144.69 484.805 144.697 484.879C144.701 484.927 144.705 484.974 144.71 485.022C144.716 485.096 144.723 485.17 144.73 485.244C144.734 485.296 144.739 485.348 144.743 485.4C144.749 485.465 144.754 485.529 144.76 485.594C144.765 485.653 144.77 485.713 144.775 485.773C144.781 485.835 144.786 485.897 144.791 485.959C144.796 486.016 144.8 486.073 144.805 486.13C144.811 486.2 144.817 486.271 144.823 486.341C144.826 486.385 144.83 486.43 144.833 486.474C144.84 486.556 144.847 486.638 144.853 486.719C144.856 486.76 144.859 486.801 144.863 486.842C144.869 486.923 144.875 487.005 144.882 487.087C144.885 487.131 144.888 487.175 144.892 487.219C144.897 487.294 144.903 487.37 144.909 487.445C144.913 487.497 144.916 487.548 144.92 487.6C144.926 487.679 144.932 487.759 144.938 487.838C144.94 487.876 144.943 487.914 144.946 487.952C144.953 488.05 144.96 488.148 144.967 488.245C144.968 488.271 144.97 488.297 144.972 488.323C144.978 488.412 144.984 488.502 144.99 488.591C144.993 488.634 144.996 488.677 144.999 488.72C145.004 488.803 145.01 488.885 145.015 488.968C145.018 489.009 145.021 489.051 145.023 489.092C145.029 489.188 145.036 489.284 145.042 489.38C145.043 489.409 145.045 489.439 145.047 489.468C145.087 490.108 145.124 490.754 145.157 491.406C145.157 491.42 145.158 491.434 145.159 491.448C145.165 491.565 145.171 491.681 145.176 491.798C145.177 491.818 145.178 491.838 145.179 491.858C145.184 491.967 145.189 492.076 145.194 492.186C145.196 492.215 145.197 492.244 145.198 492.274C145.203 492.375 145.208 492.477 145.212 492.579C145.214 492.613 145.215 492.646 145.216 492.68C145.221 492.774 145.225 492.868 145.229 492.963C145.23 493.009 145.232 493.055 145.234 493.102C145.238 493.187 145.241 493.272 145.245 493.358C145.246 493.401 145.248 493.444 145.25 493.488C145.253 493.577 145.257 493.667 145.26 493.756C145.262 493.801 145.263 493.845 145.265 493.889C145.268 493.979 145.271 494.068 145.274 494.158C145.276 494.201 145.277 494.244 145.279 494.288C145.282 494.377 145.285 494.467 145.288 494.556C145.289 494.6 145.29 494.643 145.292 494.687C145.295 494.777 145.297 494.867 145.3 494.956C145.302 495.002 145.303 495.047 145.304 495.093C145.307 495.182 145.309 495.272 145.312 495.362C145.313 495.406 145.314 495.449 145.316 495.493C145.318 495.589 145.321 495.686 145.323 495.784C145.324 495.819 145.325 495.853 145.326 495.888C145.329 495.992 145.331 496.096 145.333 496.201C145.334 496.233 145.335 496.264 145.336 496.296C145.338 496.401 145.34 496.507 145.342 496.612C145.343 496.643 145.344 496.673 145.344 496.704C145.347 496.824 145.349 496.945 145.351 497.066C145.352 497.079 145.352 497.092 145.352 497.106C145.354 497.23 145.356 497.354 145.359 497.479C145.359 497.494 145.359 497.508 145.359 497.523C145.368 498.076 145.374 498.634 145.378 499.196C145.378 499.213 145.378 499.229 145.378 499.246C145.379 499.368 145.379 499.491 145.38 499.614C145.38 499.636 145.38 499.658 145.38 499.68C145.381 499.803 145.381 499.926 145.381 500.05C145.381 500.055 145.381 500.06 145.381 500.065C145.381 500.194 145.382 500.324 145.381 500.454C145.381 500.491 145.381 500.528 145.381 500.565C145.381 500.669 145.381 500.773 145.381 500.878C145.381 500.913 145.381 500.948 145.38 500.983C145.38 501.089 145.38 501.196 145.379 501.303C145.379 501.339 145.379 501.376 145.378 501.413C145.378 501.518 145.377 501.623 145.376 501.728C145.376 501.765 145.376 501.801 145.375 501.837C145.375 501.948 145.374 502.058 145.372 502.168C145.372 502.198 145.372 502.227 145.372 502.256C145.37 502.369 145.369 502.483 145.368 502.596C145.367 502.627 145.367 502.657 145.367 502.688C145.365 502.801 145.364 502.914 145.362 503.027C145.362 503.061 145.361 503.094 145.361 503.128C145.359 503.235 145.357 503.343 145.355 503.45C145.355 503.488 145.354 503.525 145.353 503.563C145.352 503.672 145.35 503.781 145.347 503.891C145.347 503.925 145.346 503.96 145.346 503.994C145.343 504.099 145.341 504.204 145.339 504.309C145.338 504.353 145.337 504.397 145.336 504.441C145.334 504.553 145.331 504.664 145.328 504.776C145.328 504.804 145.327 504.832 145.326 504.861C145.323 504.983 145.32 505.106 145.317 505.229C145.316 505.252 145.316 505.276 145.315 505.3C145.312 505.422 145.308 505.544 145.305 505.666C145.304 505.692 145.304 505.717 145.303 505.743C145.282 506.48 145.256 507.224 145.225 507.973C145.224 507.983 145.224 507.994 145.224 508.005C145.218 508.141 145.212 508.278 145.206 508.415C145.205 508.443 145.204 508.472 145.203 508.501C145.197 508.622 145.192 508.744 145.186 508.866C145.185 508.896 145.184 508.926 145.182 508.956C145.177 509.076 145.171 509.195 145.165 509.315C145.164 509.347 145.162 509.379 145.16 509.411C145.155 509.53 145.149 509.65 145.143 509.769C145.141 509.802 145.139 509.836 145.138 509.869C145.132 509.986 145.126 510.103 145.12 510.22C145.118 510.257 145.116 510.294 145.114 510.33C145.108 510.441 145.102 510.552 145.096 510.663C145.093 510.71 145.091 510.756 145.088 510.803C145.082 510.908 145.076 511.013 145.07 511.119C145.068 511.163 145.065 511.208 145.063 511.253C145.056 511.359 145.05 511.465 145.044 511.571C145.041 511.622 145.038 511.673 145.035 511.724C145.029 511.824 145.022 511.924 145.016 512.023C145.013 512.074 145.01 512.125 145.007 512.176C145 512.281 144.993 512.386 144.987 512.491C144.984 512.537 144.981 512.584 144.978 512.63C144.971 512.738 144.964 512.845 144.956 512.953C144.953 513 144.95 513.048 144.947 513.095C144.94 513.2 144.932 513.306 144.925 513.412C144.922 513.459 144.919 513.506 144.915 513.554C144.907 513.673 144.898 513.792 144.89 513.911C144.888 513.943 144.886 513.974 144.883 514.005C144.874 514.136 144.864 514.266 144.855 514.397C144.853 514.421 144.851 514.445 144.849 514.47C144.84 514.596 144.83 514.723 144.82 514.85C144.818 514.881 144.816 514.912 144.813 514.943C144.79 515.252 144.765 515.562 144.74 515.873C144.739 515.875 144.739 515.876 144.739 515.878C144.701 516.35 144.66 516.824 144.618 517.301C144.615 517.33 144.612 517.36 144.61 517.389C144.598 517.516 144.587 517.643 144.575 517.771C144.572 517.81 144.568 517.85 144.564 517.89C144.553 518.007 144.542 518.125 144.531 518.244C144.527 518.289 144.523 518.334 144.519 518.379C144.508 518.492 144.497 518.606 144.486 518.719C144.482 518.765 144.477 518.811 144.473 518.857C144.462 518.971 144.45 519.086 144.439 519.2C144.435 519.246 144.43 519.291 144.426 519.336C144.415 519.446 144.404 519.557 144.393 519.667C144.387 519.723 144.381 519.778 144.376 519.833C144.365 519.94 144.354 520.046 144.343 520.152C144.338 520.201 144.333 520.25 144.328 520.3C144.316 520.411 144.305 520.523 144.293 520.634C144.287 520.687 144.281 520.74 144.276 520.794C144.265 520.897 144.254 521.001 144.242 521.105C144.236 521.163 144.23 521.22 144.224 521.278C144.212 521.384 144.2 521.491 144.188 521.597C144.183 521.649 144.177 521.701 144.171 521.753C144.159 521.862 144.147 521.971 144.134 522.081C144.128 522.135 144.122 522.19 144.116 522.244C144.103 522.354 144.091 522.464 144.078 522.573C144.072 522.623 144.066 522.673 144.061 522.723C144.047 522.836 144.034 522.949 144.021 523.062C144.015 523.113 144.009 523.163 144.003 523.214C143.989 523.331 143.975 523.448 143.961 523.566C143.956 523.609 143.951 523.652 143.945 523.695C143.93 523.821 143.914 523.947 143.899 524.073C143.894 524.111 143.89 524.148 143.885 524.186C143.87 524.308 143.855 524.43 143.839 524.552C143.834 524.596 143.829 524.639 143.823 524.682C143.805 524.824 143.787 524.967 143.769 525.11C143.766 525.129 143.764 525.149 143.761 525.168C143.676 525.832 143.587 526.5 143.494 527.171C143.492 527.185 143.49 527.198 143.488 527.212C143.467 527.361 143.447 527.511 143.426 527.661C143.42 527.697 143.416 527.732 143.41 527.768C143.392 527.899 143.373 528.03 143.355 528.161C143.349 528.202 143.343 528.243 143.337 528.284C143.319 528.407 143.301 528.531 143.283 528.654C143.276 528.704 143.269 528.754 143.262 528.803C143.244 528.924 143.226 529.044 143.208 529.164C143.202 529.207 143.196 529.25 143.189 529.293C143.171 529.418 143.152 529.542 143.133 529.667C143.126 529.714 143.119 529.76 143.112 529.807C143.094 529.929 143.075 530.05 143.056 530.172C143.049 530.218 143.043 530.263 143.035 530.309C143.016 530.434 142.997 530.56 142.977 530.685C142.97 530.728 142.964 530.771 142.957 530.814C142.938 530.935 142.919 531.056 142.9 531.177C142.891 531.232 142.882 531.288 142.873 531.343C142.856 531.456 142.838 531.568 142.819 531.681C142.811 531.735 142.802 531.79 142.793 531.844C142.774 531.966 142.754 532.087 142.734 532.209C142.726 532.256 142.719 532.302 142.711 532.349C142.691 532.471 142.671 532.593 142.651 532.715C142.643 532.764 142.635 532.813 142.626 532.862C142.605 532.993 142.583 533.124 142.561 533.254C142.555 533.291 142.548 533.328 142.542 533.365C142.518 533.507 142.494 533.65 142.469 533.792C142.465 533.82 142.46 533.847 142.455 533.875C142.43 534.025 142.404 534.175 142.378 534.325C142.374 534.347 142.37 534.369 142.366 534.391C142.276 534.91 142.184 535.431 142.089 535.954C140.176 536.989 138.396 538.246 136.617 539.491C136.609 539.497 136.601 539.503 136.592 539.509C136.469 539.595 136.345 539.681 136.221 539.767C136.113 539.842 136.005 539.917 135.897 539.992C135.894 539.994 135.891 539.996 135.887 539.998C134.893 540.684 133.893 541.36 132.898 542.045C132.9 542.043 132.903 542.041 132.905 542.038C133.61 541.266 134.323 540.498 135.098 539.791Z" fill="#3E932C"/>
<path d="M135.22 393.753C136.876 388.033 139.396 382.561 142.599 377.544C144.429 374.677 146.487 371.954 148.755 369.42C150.765 367.173 152.908 364.982 155.848 362.787C155.825 363.19 155.798 363.586 155.77 363.978C155.603 364.325 155.458 364.682 155.334 365.032C154.601 367.104 154.316 369.35 154.192 371.535C154.05 374.051 154.171 376.554 153.833 379.062C153.44 381.967 152.634 384.837 151.223 387.415C150.521 388.696 149.757 389.944 149.134 391.267C148.727 392.131 148.361 393.052 148.258 394.005C148.74 393.868 149.206 393.648 149.662 393.47C150.472 393.153 151.322 392.892 152.201 392.968C154.464 393.166 155.332 395.468 155.428 397.427C155.633 401.608 153.95 405.587 152.152 409.275C151.769 410.063 151.336 410.827 151.009 411.642C150.848 412.043 150.706 412.476 150.678 412.908C152.066 412.284 153.276 411.252 154.614 410.543C156.242 409.681 158.359 409.191 159.828 410.653C161.144 411.963 161.166 414.049 161.034 415.776C160.875 417.867 160.566 419.953 160.106 421.998C157.972 431.484 152.886 439.944 147.519 447.925C145.81 450.466 143.97 452.952 141.883 455.193C156.063 445.931 167.998 431.125 170.446 414.073C170.52 413.554 170.582 413.035 170.631 412.514C170.648 412.341 170.663 412.167 170.676 411.993C170.697 411.733 170.715 411.472 170.729 411.211C170.758 410.69 170.775 410.168 170.779 409.646C170.78 409.559 170.781 409.472 170.781 409.385C170.781 409.211 170.78 409.037 170.777 408.863C170.773 408.515 170.763 408.167 170.748 407.819C170.732 407.472 170.712 407.124 170.687 406.777C170.661 406.43 170.631 406.083 170.595 405.737C170.542 405.217 170.477 404.699 170.401 404.182C170.376 404.01 170.35 403.838 170.322 403.666C170.294 403.494 170.265 403.322 170.235 403.151C170.13 402.551 170.009 401.953 169.875 401.358C169.836 401.188 169.797 401.019 169.756 400.849C169.681 400.538 169.602 400.227 169.519 399.918C173.744 396.209 178.496 393.098 183.553 390.649C186.614 389.166 189.794 387.926 193.054 386.957C195.943 386.097 198.917 385.355 202.571 385.026C202.337 385.361 202.106 385.681 201.875 386.003C201.553 386.21 201.244 386.437 200.956 386.669C199.246 388.049 197.826 389.812 196.575 391.608C195.136 393.676 193.927 395.872 192.324 397.83C190.467 400.098 188.276 402.119 185.723 403.575C184.454 404.298 183.149 404.961 181.925 405.76C181.125 406.283 180.331 406.876 179.744 407.633C180.226 407.769 180.738 407.826 181.22 407.913C182.075 408.068 182.936 408.291 183.645 408.817C185.468 410.172 185.001 412.587 184.056 414.306C182.038 417.974 178.52 420.48 175.056 422.679C174.316 423.148 173.547 423.572 172.842 424.095C172.494 424.352 172.146 424.646 171.896 425C173.405 425.196 174.977 424.951 176.488 425.049C178.326 425.168 180.386 425.86 180.871 427.876C181.305 429.68 180.23 431.469 179.212 432.871C177.98 434.568 176.624 436.182 175.16 437.683C168.371 444.642 159.605 449.181 150.852 453.164C148.07 454.43 145.205 455.58 142.26 456.395C141.639 456.412 141.017 456.43 140.399 456.431C140.402 456.426 140.404 456.421 140.407 456.416C140.483 456.285 140.558 456.153 140.632 456.021C140.643 456.002 140.654 455.983 140.665 455.964C140.82 455.688 140.973 455.412 141.124 455.134C141.134 455.116 141.144 455.098 141.154 455.08C141.226 454.947 141.297 454.814 141.368 454.681C141.38 454.658 141.392 454.635 141.405 454.612C141.475 454.479 141.545 454.346 141.615 454.213C141.625 454.194 141.635 454.175 141.645 454.156C141.717 454.017 141.789 453.878 141.86 453.739L141.862 453.735C141.934 453.594 142.005 453.454 142.076 453.313C142.084 453.296 142.092 453.28 142.101 453.263C142.168 453.128 142.235 452.993 142.302 452.857C142.313 452.834 142.324 452.812 142.336 452.789C142.403 452.652 142.469 452.516 142.535 452.379C142.541 452.365 142.548 452.351 142.555 452.337C142.695 452.046 142.832 451.755 142.967 451.462C142.972 451.451 142.977 451.44 142.982 451.429C143.047 451.289 143.111 451.148 143.174 451.008C143.183 450.988 143.193 450.967 143.202 450.947C143.264 450.809 143.326 450.671 143.387 450.532C143.395 450.515 143.402 450.497 143.41 450.48C143.54 450.186 143.667 449.892 143.791 449.597C143.795 449.588 143.799 449.58 143.802 449.572C143.863 449.428 143.923 449.285 143.982 449.141C143.99 449.123 143.998 449.104 144.005 449.085C144.065 448.94 144.124 448.795 144.183 448.65C144.185 448.644 144.188 448.638 144.19 448.632C144.313 448.328 144.433 448.023 144.551 447.717C144.554 447.709 144.557 447.701 144.56 447.693C144.617 447.546 144.673 447.398 144.729 447.25C144.734 447.237 144.739 447.223 144.744 447.21C144.8 447.061 144.856 446.912 144.91 446.763C144.913 446.757 144.915 446.75 144.917 446.743C145.088 446.279 145.253 445.812 145.413 445.344L145.422 445.317C145.474 445.164 145.526 445.01 145.577 444.856C145.578 444.854 145.579 444.852 145.58 444.849C145.737 444.376 145.888 443.902 146.034 443.426C146.036 443.42 146.037 443.415 146.039 443.409C146.234 442.772 146.419 442.134 146.594 441.493C146.594 441.493 146.595 441.492 146.595 441.491C148.138 435.841 148.901 430.056 148.942 424.343C149.002 416.096 147.496 407.704 142.616 401.058C140.572 398.275 138.026 395.903 135.22 393.753Z" fill="#EC69A4"/>
<path d="M48.0118 434.108C51.2192 432.975 54.5201 432.108 57.8679 431.507C63.3982 430.514 69.0712 430.237 74.6697 430.752C75.1907 432.108 75.7889 433.435 76.4633 434.721C76.5846 434.952 76.7084 435.182 76.8346 435.41C77.087 435.868 77.3493 436.319 77.6213 436.765C77.8026 437.062 77.9884 437.356 78.1783 437.648C78.2259 437.721 78.2736 437.793 78.3216 437.866C79.4747 439.607 80.783 441.244 82.243 442.746C94.2502 455.1 112.609 460.058 129.525 459.211C126.52 458.625 123.569 457.697 120.692 456.646C111.659 453.347 102.57 449.495 95.2668 443.077C93.6917 441.693 92.2158 440.188 90.8571 438.59C89.735 437.271 88.5261 435.57 88.8203 433.737C89.1488 431.69 91.1491 430.842 92.9728 430.582C94.4716 430.369 96.0576 430.492 97.5472 430.181C97.2706 429.847 96.9012 429.581 96.5349 429.351C95.7914 428.884 94.9921 428.52 94.2183 428.109C90.5961 426.183 86.8955 423.954 84.6026 420.452C83.5279 418.811 82.8764 416.439 84.5907 414.948C85.2565 414.369 86.0977 414.08 86.9389 413.861C87.4127 413.737 87.9192 413.64 88.3891 413.468C87.7456 412.758 86.9083 412.228 86.0708 411.768C84.7892 411.065 83.4369 410.505 82.1163 409.881C79.4585 408.626 77.1192 406.779 75.0936 404.66C73.3448 402.83 71.9711 400.734 70.3766 398.783C68.9921 397.088 67.4402 395.439 65.6294 394.194C65.3248 393.985 64.9996 393.783 64.6627 393.601C64.4071 393.297 64.1522 392.996 63.8931 392.68C67.5617 392.727 70.5836 393.239 73.5305 393.874C76.8557 394.591 80.1211 395.583 83.2872 396.826C88.8912 399.026 94.2044 402.012 98.9488 405.723C97.9754 409.048 97.3359 412.397 97.3199 415.784C97.2809 424.029 100.997 431.702 105.894 438.337C107.716 440.805 109.718 443.167 111.888 445.393C113.27 446.809 114.719 448.17 116.235 449.467C116.307 449.529 116.379 449.59 116.451 449.652C116.596 449.775 116.742 449.897 116.888 450.019C116.961 450.08 117.034 450.141 117.107 450.201C121.067 453.474 125.456 456.319 130.223 458.598C130.312 458.64 130.4 458.682 130.489 458.724C130.666 458.807 130.843 458.89 131.022 458.972C131.2 459.054 131.378 459.136 131.557 459.216C131.571 459.222 131.585 459.228 131.598 459.234C131.05 459.634 130.487 460.02 129.924 460.406C127.064 461.478 124.072 462.232 121.079 462.844C111.656 464.769 101.897 466.253 92.3133 464.616C90.2465 464.263 88.2003 463.754 86.2061 463.106C84.5589 462.571 82.6377 461.756 81.9276 460.041C81.1345 458.126 82.3933 456.355 83.8103 455.178C84.9747 454.21 86.3901 453.484 87.4952 452.438C87.085 452.299 86.6305 452.265 86.1984 452.262C85.3205 452.254 84.4491 452.363 83.5745 452.418C79.48 452.677 75.1604 452.719 71.3722 450.938C69.5967 450.104 67.7983 448.425 68.4768 446.257C68.7404 445.415 69.3055 444.728 69.9068 444.1C70.2453 443.746 70.626 443.398 70.9359 443.006C70.0156 442.738 69.0247 442.726 68.0706 442.773C66.6105 442.846 65.1652 443.078 63.7136 443.239C60.7923 443.563 57.8318 443.216 54.9961 442.473C52.5479 441.832 50.2793 440.767 47.8986 439.941C45.8315 439.224 43.6453 438.633 41.4506 438.522C41.0795 438.503 40.6943 438.501 40.3099 438.524C39.9367 438.4 39.5608 438.274 39.1785 438.143C42.3274 436.26 45.1691 435.112 48.0118 434.108Z" fill="#EC69A4"/>
<path d="M124.949 467.035C116.887 466.529 106.307 471.569 100.136 478.123C93.964 484.677 92.2008 492.74 95.9805 494.249C99.7586 495.76 109.078 490.72 115.25 490.849C121.422 490.984 124.445 496.269 128.724 495.259C133.006 494.249 138.547 486.941 138.55 480.265C138.55 473.589 133.01 467.54 124.949 467.035Z" fill="#FF8080"/>
<path d="M149.251 504.259C144.085 510.056 138.543 522.403 137.287 528.828C136.029 535.253 139.053 535.757 143.458 533.615C147.864 531.474 153.657 526.684 159.83 526.435C166.004 526.184 172.553 530.468 177.463 529.962C182.372 529.458 185.646 524.165 183.128 518.37C180.612 512.575 172.3 506.276 165.751 502.747C159.203 499.219 154.418 498.461 149.251 504.259Z" fill="#FF8080"/>
</g>
<defs>
<clipPath id="clip0_67_73976">
<rect width="377" height="622" fill="white"/>
</clipPath>
</defs>
</svg>
