<svg width="405" height="382" viewBox="0 0 405 382" fill="none" xmlns="http://www.w3.org/2000/svg">
<path d="M6.45231 184.913C5.29624 181.897 5.24327 178.628 6.13597 175.522C8.99584 165.566 21.5214 157.221 44.4471 156.292C63.2894 155.529 89.0356 159.756 107.403 162.993C100.44 158.737 92.824 153.409 86.3788 148.106C68.7833 133.637 59.8869 119.373 57.8781 111.962C55.8729 104.55 60.7604 103.998 78.3592 118.475C93.8603 131.217 119.215 155.622 126.401 166.32C136.227 168.026 137.337 168.615 136.146 172.938C134.684 178.245 129.984 189.223 115.644 200.846C101.305 212.467 77.325 224.734 67.8029 225.419C58.2841 226.112 63.2351 215.226 75.6214 204.328C88.0095 193.425 107.831 182.517 99.2804 183.227C90.7316 183.936 53.8003 196.268 31.9395 196.653C16.9036 196.922 8.9969 191.539 6.45231 184.913Z" fill="#68D2AD"/>
<path d="M364.437 219.813C315.761 234.294 217.021 248.617 164.752 241.448C112.482 234.278 106.684 205.623 115.665 172.718C124.641 139.819 148.393 102.67 199.972 102.515C251.546 102.362 330.954 139.192 371.34 164.94C411.732 190.679 413.115 205.329 364.437 219.813Z" fill="#FFB839"/>
<path d="M192.391 181.438C192.177 183.401 191.484 185.139 190.311 186.654C189.159 188.147 187.644 189.31 185.767 190.142C183.889 190.974 181.745 191.39 179.335 191.39C176.647 191.39 174.289 190.867 172.263 189.822C170.236 188.777 168.657 187.326 167.527 185.47C166.396 183.593 165.831 181.417 165.831 178.942C165.831 176.467 166.396 174.302 167.527 172.446C168.657 170.569 170.236 169.107 172.263 168.062C174.289 167.017 176.647 166.494 179.335 166.494C181.745 166.494 183.889 166.91 185.767 167.742C187.644 168.574 189.159 169.737 190.311 171.23C191.484 172.723 192.177 174.462 192.391 176.446H188.135C187.9 175.166 187.388 174.067 186.599 173.15C185.831 172.233 184.828 171.529 183.591 171.038C182.353 170.526 180.924 170.27 179.303 170.27C177.425 170.27 175.793 170.622 174.407 171.326C173.041 172.03 171.985 173.033 171.239 174.334C170.492 175.635 170.119 177.171 170.119 178.942C170.119 180.713 170.492 182.249 171.239 183.55C171.985 184.851 173.041 185.854 174.407 186.558C175.793 187.262 177.425 187.614 179.303 187.614C180.924 187.614 182.353 187.369 183.591 186.878C184.828 186.387 185.831 185.683 186.599 184.766C187.388 183.827 187.9 182.718 188.135 181.438H192.391ZM195.786 190.942V172.83H199.946V187.422L198.698 186.974L210.25 172.83H214.986L199.626 190.942H195.786ZM210.698 190.942L205.066 181.982L207.978 179.358L215.562 190.942H210.698ZM233.745 190.942L233.041 184.222L233.873 181.886L233.041 179.582L233.745 172.83H238.033L237.073 181.886L238.033 190.942H233.745ZM235.025 181.886C234.619 183.785 233.947 185.449 233.009 186.878C232.07 188.307 230.907 189.417 229.521 190.206C228.155 190.995 226.63 191.39 224.945 191.39C223.174 191.39 221.606 190.995 220.241 190.206C218.875 189.395 217.809 188.275 217.041 186.846C216.273 185.417 215.889 183.763 215.889 181.886C215.889 179.987 216.273 178.334 217.041 176.926C217.809 175.497 218.875 174.387 220.241 173.598C221.606 172.787 223.174 172.382 224.945 172.382C226.63 172.382 228.155 172.777 229.521 173.566C230.907 174.355 232.07 175.465 233.009 176.894C233.969 178.302 234.641 179.966 235.025 181.886ZM220.113 181.886C220.113 183.102 220.358 184.179 220.849 185.118C221.361 186.035 222.054 186.761 222.929 187.294C223.803 187.806 224.806 188.062 225.937 188.062C227.089 188.062 228.155 187.806 229.137 187.294C230.118 186.761 230.982 186.035 231.729 185.118C232.497 184.179 233.105 183.102 233.553 181.886C233.105 180.67 232.497 179.603 231.729 178.686C230.982 177.747 230.118 177.022 229.137 176.51C228.155 175.977 227.089 175.71 225.937 175.71C224.806 175.71 223.803 175.977 222.929 176.51C222.054 177.022 221.361 177.747 220.849 178.686C220.358 179.603 220.113 180.67 220.113 181.886ZM248.596 185.342C246.121 185.342 244.233 184.67 242.932 183.326C241.631 181.961 240.98 179.977 240.98 177.374V172.83H245.108V177.214C245.108 180.414 246.612 182.014 249.62 182.014C250.857 182.014 252.02 181.726 253.108 181.15C254.217 180.574 255.231 179.71 256.148 178.558L256.404 181.502C255.657 182.718 254.591 183.667 253.204 184.35C251.839 185.011 250.303 185.342 248.596 185.342ZM255.636 190.942V172.83H259.796V190.942H255.636ZM281.12 190.942L280.416 184.222L281.248 181.886L280.416 179.582L281.12 172.83H285.408L284.448 181.886L285.408 190.942H281.12ZM282.4 181.886C281.994 183.785 281.322 185.449 280.384 186.878C279.445 188.307 278.282 189.417 276.896 190.206C275.53 190.995 274.005 191.39 272.32 191.39C270.549 191.39 268.981 190.995 267.616 190.206C266.25 189.395 265.184 188.275 264.416 186.846C263.648 185.417 263.264 183.763 263.264 181.886C263.264 179.987 263.648 178.334 264.416 176.926C265.184 175.497 266.25 174.387 267.616 173.598C268.981 172.787 270.549 172.382 272.32 172.382C274.005 172.382 275.53 172.777 276.896 173.566C278.282 174.355 279.445 175.465 280.384 176.894C281.344 178.302 282.016 179.966 282.4 181.886ZM267.488 181.886C267.488 183.102 267.733 184.179 268.224 185.118C268.736 186.035 269.429 186.761 270.304 187.294C271.178 187.806 272.181 188.062 273.312 188.062C274.464 188.062 275.53 187.806 276.512 187.294C277.493 186.761 278.357 186.035 279.104 185.118C279.872 184.179 280.48 183.102 280.928 181.886C280.48 180.67 279.872 179.603 279.104 178.686C278.357 177.747 277.493 177.022 276.512 176.51C275.53 175.977 274.464 175.71 273.312 175.71C272.181 175.71 271.178 175.977 270.304 176.51C269.429 177.022 268.736 177.747 268.224 178.686C267.733 179.603 267.488 180.67 267.488 181.886ZM295.139 174.27H299.299V190.942H295.139V174.27ZM287.619 172.83H306.819V176.094H287.619V172.83ZM309.442 190.942V172.83H313.602V189.79L312.13 187.87H319.874C321.005 187.87 321.89 187.593 322.53 187.038C323.17 186.462 323.49 185.683 323.49 184.702C323.49 183.699 323.17 182.921 322.53 182.366C321.89 181.79 321.005 181.502 319.874 181.502H312.258V178.526H320.418C321.89 178.526 323.17 178.793 324.258 179.326C325.346 179.838 326.189 180.563 326.786 181.502C327.405 182.419 327.714 183.497 327.714 184.734C327.714 185.971 327.405 187.059 326.786 187.998C326.189 188.937 325.346 189.662 324.258 190.174C323.17 190.686 321.901 190.942 320.45 190.942H309.442Z" fill="black"/>
</svg>
