<svg width="404" height="377" viewBox="0 0 404 377" fill="none" xmlns="http://www.w3.org/2000/svg">
<path d="M7.37678 218.205C5.78559 215.391 5.24867 212.164 5.67215 208.958C7.02757 198.68 18.1894 188.565 40.7446 184.249C59.2827 180.702 85.394 181.071 104.055 181.554C96.5318 178.372 88.2033 174.228 81.0377 169.935C61.4768 158.222 50.5569 145.423 47.4703 138.385C44.3871 131.347 49.1432 130.076 68.7086 141.797C85.9405 152.111 114.654 172.508 123.352 182.031C133.332 182.264 134.517 182.682 133.979 187.137C133.319 192.606 130.293 204.167 117.821 217.796C105.35 231.422 83.4309 247.115 74.107 249.204C64.7876 251.301 68.0752 239.793 78.7209 227.172C89.3675 214.545 107.371 200.813 99.0128 202.783C90.6558 204.751 55.9269 222.428 34.3451 226.048C19.5016 228.542 10.8774 224.385 7.37678 218.205Z" fill="#3DC093"/>
<path d="M366.899 199.706C320.863 221.249 225.248 250.055 172.447 250.704C119.646 251.352 109.66 223.851 113.674 189.954C117.683 156.064 135.689 115.778 186.722 107.982C237.75 100.189 321.809 124.875 365.6 144.374C409.397 163.863 412.937 178.158 366.899 199.706Z" fill="#E89D15"/>
</svg>
