<svg width="405" height="382" viewBox="0 0 405 382" fill="none" xmlns="http://www.w3.org/2000/svg">
<path d="M6.45231 184.911C5.29624 181.896 5.24327 178.626 6.13597 175.521C8.99584 165.564 21.5214 157.219 44.4471 156.29C63.2894 155.528 89.0356 159.755 107.403 162.992C100.44 158.735 92.824 153.408 86.3788 148.105C68.7833 133.636 59.8869 119.372 57.8781 111.96C55.8729 104.549 60.7604 103.997 78.3592 118.474C93.8603 131.215 119.215 155.62 126.401 166.318C136.227 168.025 137.337 168.613 136.146 172.936C134.684 178.243 129.984 189.221 115.644 200.845C101.305 212.466 77.325 224.732 67.8029 225.417C58.2841 226.111 63.2351 215.224 75.6214 204.327C88.0095 193.423 107.831 182.515 99.2804 183.226C90.7316 183.935 53.8003 196.267 31.9395 196.652C16.9036 196.921 8.9969 191.537 6.45231 184.911Z" fill="#3DC093"/>
<path d="M364.437 219.812C315.761 234.293 217.021 248.616 164.752 241.446C112.482 234.277 106.684 205.622 115.665 172.717C124.641 139.818 148.393 102.669 199.972 102.513C251.546 102.36 330.954 139.191 371.34 164.938C411.732 190.678 413.115 205.328 364.437 219.812Z" fill="#E89D15"/>
<path d="M192.391 181.437C192.177 183.4 191.484 185.139 190.311 186.653C189.159 188.147 187.644 189.309 185.767 190.141C183.889 190.973 181.745 191.389 179.335 191.389C176.647 191.389 174.289 190.867 172.263 189.821C170.236 188.776 168.657 187.325 167.527 185.469C166.396 183.592 165.831 181.416 165.831 178.941C165.831 176.467 166.396 174.301 167.527 172.445C168.657 170.568 170.236 169.107 172.263 168.061C174.289 167.016 176.647 166.493 179.335 166.493C181.745 166.493 183.889 166.909 185.767 167.741C187.644 168.573 189.159 169.736 190.311 171.229C191.484 172.723 192.177 174.461 192.391 176.445H188.135C187.9 175.165 187.388 174.067 186.599 173.149C185.831 172.232 184.828 171.528 183.591 171.037C182.353 170.525 180.924 170.269 179.303 170.269C177.425 170.269 175.793 170.621 174.407 171.325C173.041 172.029 171.985 173.032 171.239 174.333C170.492 175.635 170.119 177.171 170.119 178.941C170.119 180.712 170.492 182.248 171.239 183.549C171.985 184.851 173.041 185.853 174.407 186.557C175.793 187.261 177.425 187.613 179.303 187.613C180.924 187.613 182.353 187.368 183.591 186.877C184.828 186.387 185.831 185.683 186.599 184.765C187.388 183.827 187.9 182.717 188.135 181.437H192.391ZM195.786 190.941V172.829H199.946V187.421L198.698 186.973L210.25 172.829H214.986L199.626 190.941H195.786ZM210.698 190.941L205.066 181.981L207.978 179.357L215.562 190.941H210.698ZM233.745 190.941L233.041 184.221L233.873 181.885L233.041 179.581L233.745 172.829H238.033L237.073 181.885L238.033 190.941H233.745ZM235.025 181.885C234.619 183.784 233.947 185.448 233.009 186.877C232.07 188.307 230.907 189.416 229.521 190.205C228.155 190.995 226.63 191.389 224.945 191.389C223.174 191.389 221.606 190.995 220.241 190.205C218.875 189.395 217.809 188.275 217.041 186.845C216.273 185.416 215.889 183.763 215.889 181.885C215.889 179.987 216.273 178.333 217.041 176.925C217.809 175.496 218.875 174.387 220.241 173.597C221.606 172.787 223.174 172.381 224.945 172.381C226.63 172.381 228.155 172.776 229.521 173.565C230.907 174.355 232.07 175.464 233.009 176.893C233.969 178.301 234.641 179.965 235.025 181.885ZM220.113 181.885C220.113 183.101 220.358 184.179 220.849 185.117C221.361 186.035 222.054 186.76 222.929 187.293C223.803 187.805 224.806 188.061 225.937 188.061C227.089 188.061 228.155 187.805 229.137 187.293C230.118 186.76 230.982 186.035 231.729 185.117C232.497 184.179 233.105 183.101 233.553 181.885C233.105 180.669 232.497 179.603 231.729 178.685C230.982 177.747 230.118 177.021 229.137 176.509C228.155 175.976 227.089 175.709 225.937 175.709C224.806 175.709 223.803 175.976 222.929 176.509C222.054 177.021 221.361 177.747 220.849 178.685C220.358 179.603 220.113 180.669 220.113 181.885ZM248.596 185.341C246.121 185.341 244.233 184.669 242.932 183.325C241.631 181.96 240.98 179.976 240.98 177.373V172.829H245.108V177.213C245.108 180.413 246.612 182.013 249.62 182.013C250.857 182.013 252.02 181.725 253.108 181.149C254.217 180.573 255.231 179.709 256.148 178.557L256.404 181.501C255.657 182.717 254.591 183.667 253.204 184.349C251.839 185.011 250.303 185.341 248.596 185.341ZM255.636 190.941V172.829H259.796V190.941H255.636ZM281.12 190.941L280.416 184.221L281.248 181.885L280.416 179.581L281.12 172.829H285.408L284.448 181.885L285.408 190.941H281.12ZM282.4 181.885C281.994 183.784 281.322 185.448 280.384 186.877C279.445 188.307 278.282 189.416 276.896 190.205C275.53 190.995 274.005 191.389 272.32 191.389C270.549 191.389 268.981 190.995 267.616 190.205C266.25 189.395 265.184 188.275 264.416 186.845C263.648 185.416 263.264 183.763 263.264 181.885C263.264 179.987 263.648 178.333 264.416 176.925C265.184 175.496 266.25 174.387 267.616 173.597C268.981 172.787 270.549 172.381 272.32 172.381C274.005 172.381 275.53 172.776 276.896 173.565C278.282 174.355 279.445 175.464 280.384 176.893C281.344 178.301 282.016 179.965 282.4 181.885ZM267.488 181.885C267.488 183.101 267.733 184.179 268.224 185.117C268.736 186.035 269.429 186.76 270.304 187.293C271.178 187.805 272.181 188.061 273.312 188.061C274.464 188.061 275.53 187.805 276.512 187.293C277.493 186.76 278.357 186.035 279.104 185.117C279.872 184.179 280.48 183.101 280.928 181.885C280.48 180.669 279.872 179.603 279.104 178.685C278.357 177.747 277.493 177.021 276.512 176.509C275.53 175.976 274.464 175.709 273.312 175.709C272.181 175.709 271.178 175.976 270.304 176.509C269.429 177.021 268.736 177.747 268.224 178.685C267.733 179.603 267.488 180.669 267.488 181.885ZM295.139 174.269H299.299V190.941H295.139V174.269ZM287.619 172.829H306.819V176.093H287.619V172.829ZM309.442 190.941V172.829H313.602V189.789L312.13 187.869H319.874C321.005 187.869 321.89 187.592 322.53 187.037C323.17 186.461 323.49 185.683 323.49 184.701C323.49 183.699 323.17 182.92 322.53 182.365C321.89 181.789 321.005 181.501 319.874 181.501H312.258V178.525H320.418C321.89 178.525 323.17 178.792 324.258 179.325C325.346 179.837 326.189 180.563 326.786 181.501C327.405 182.419 327.714 183.496 327.714 184.733C327.714 185.971 327.405 187.059 326.786 187.997C326.189 188.936 325.346 189.661 324.258 190.173C323.17 190.685 321.901 190.941 320.45 190.941H309.442Z" fill="black"/>
</svg>
