<svg width="141" height="111" viewBox="0 0 141 111" fill="none" xmlns="http://www.w3.org/2000/svg">
<path d="M128.512 52.4079C127.522 47.8039 124.7 43.5999 120.712 41.0649C116.542 38.4139 111.266 38.0089 106.709 39.8969C105.19 40.5259 103.806 41.3909 102.602 42.4679C103.815 37.5539 102.983 32.3269 101.21 27.6229C99.266 22.4649 96.4439 17.5189 91.3059 15.0299C88.8859 13.8569 86.2189 13.2599 83.534 13.3399C81.555 8.55287 77.905 4.50188 73.234 2.20288C67.939 -0.402122 61.5449 -0.748122 56.0449 1.43988C45.9059 5.47388 40.1989 16.3449 40.4849 26.9329C40.6409 32.7279 42.332 38.3909 45.005 43.5159C43.753 42.9249 42.325 42.6279 41.013 42.5289C38.591 42.3459 36.0209 42.9329 34.0229 44.3439C32.0339 45.7479 30.697 47.9889 30.292 50.3579C28.392 48.4079 25.7679 47.1749 22.9759 47.1919C18.1039 47.2229 13.6249 50.7579 12.8029 55.6139C12.5319 57.2139 12.6119 58.8549 13.042 60.3989C6.39795 61.2759 1.06196 66.8649 0.150959 73.4789C-0.835041 80.6389 3.07595 88.9769 9.92495 91.8629C12.7359 93.0469 15.9019 93.1849 18.7989 92.3389C22.0929 100.29 29.021 106.454 37.233 109.003C45.742 111.644 55.0649 109.81 62.2089 104.564C65.0109 102.507 67.454 99.9839 69.362 97.0959C72.813 98.1219 76.7789 97.5749 80.1109 96.4969C81.6879 95.9869 83.2179 95.2279 84.5399 94.2369C84.5539 94.2669 84.57 94.2969 84.588 94.3269C92.094 106.758 113.956 106.575 119.457 92.3969C120.611 89.4239 120.823 86.1579 119.981 83.1169C125.813 86.1849 133.202 83.9489 137.154 78.7959C141.525 73.0969 142.139 64.4419 138.053 58.4149C135.847 55.1579 132.422 52.9319 128.512 52.4079Z" fill="#F9F9F9"/>
<path d="M45.0078 43.5168C45.0078 43.5168 51.1858 51.1008 61.8098 52.6688C72.4338 54.2368 77.3108 44.8308 77.3108 44.8308C77.3108 44.8308 81.4908 56.3128 93.6828 55.1008C93.6828 55.1008 82.1878 60.6808 76.9628 54.2358C76.9628 54.2358 69.8218 62.4218 59.5458 59.1128C49.2698 55.8038 45.9708 51.4338 45.0078 43.5168Z" fill="#D3EAE8"/>
<path d="M82.8829 86.6319C77.8319 92.9019 66.337 88.1999 66.337 88.1999C61.983 98.9989 50.662 103.353 38.121 100.392C25.581 97.4309 21.923 81.5809 21.923 81.5809C21.923 81.5809 16.175 87.6769 8.16396 83.1489C3.60096 80.5699 1.35498 76.1279 0.265979 72.7799C0.222979 73.0119 0.182958 73.2449 0.150958 73.4799C-0.835042 80.6399 3.07598 88.9779 9.92498 91.8639C12.736 93.0479 15.902 93.1859 18.799 92.3399C22.093 100.291 29.021 106.455 37.233 109.004C45.742 111.645 55.065 109.811 62.209 104.565C65.011 102.508 67.454 99.9849 69.362 97.0969C72.813 98.1229 76.779 97.5759 80.111 96.4979C81.688 95.9879 83.218 95.2289 84.54 94.2379C84.554 94.2679 84.57 94.2979 84.588 94.3279C92.094 106.759 113.956 106.576 119.457 92.3979C119.739 91.6709 119.964 90.9269 120.131 90.1739C99.723 103.633 82.8829 86.6319 82.8829 86.6319Z" fill="#D3EAE8"/>
</svg>
