<svg width="195" height="124" viewBox="0 0 195 124" fill="none" xmlns="http://www.w3.org/2000/svg">
<path d="M9.24454 110.064C14.1575 112.499 19.8375 112.589 25.0355 111.059C25.3875 110.955 25.6305 110.756 25.7805 110.511C43.4965 125.202 69.5465 127.526 90.5125 118.822C96.5225 116.327 102.116 112.746 105.853 107.321C105.987 107.366 106.137 107.392 106.304 107.392C106.463 107.392 106.605 107.367 106.734 107.325C113.071 112.779 121.667 115.885 130.019 114.143C137.324 112.62 143.816 107.226 146.063 100.056C153.643 104.073 162.796 104.581 170.917 101.886C179.493 99.0396 186.426 92.6626 190.444 84.6146C194.443 76.6036 195.651 67.2806 193.537 58.5566C191.51 50.1926 186.277 42.1066 178.356 38.2816C171.333 34.8906 162.68 34.8106 155.943 38.6656C154.76 30.2136 152.475 21.7326 147.227 14.8946C140.997 6.77758 130.826 2.14658 120.889 0.594578C111.348 -0.895422 101.238 0.335577 92.7805 5.18958C84.1595 10.1386 77.9725 18.7576 75.6095 28.3756C73.1635 38.3326 75.0125 48.9746 80.1415 57.7616C76.8535 56.2446 72.7855 56.2166 69.3965 57.4446C64.2235 59.3186 60.4325 63.8396 59.6285 69.1466C55.0755 60.9936 47.7995 53.9306 38.3255 52.2396C28.8865 50.5546 19.0885 54.8906 15.1415 63.9006C12.8695 69.0856 12.9355 74.8906 15.0635 80.0896C9.19654 80.3106 3.58355 83.8106 1.22455 89.4566C-2.10545 97.4216 1.61554 106.284 9.24454 110.064Z" fill="#F9F9F9"/>
<path d="M80.1394 57.7616C80.1394 57.7616 92.9944 79.1306 121.199 75.6626C121.199 75.6626 103.166 86.1336 89.2954 76.0436C75.4244 65.9526 80.1394 57.7616 80.1394 57.7616Z" fill="#D3EAE8"/>
</svg>
