<svg width="81" height="61" viewBox="0 0 81 61" fill="none" xmlns="http://www.w3.org/2000/svg">
<path d="M70.4734 48.927C68.7074 54.101 64.4744 58.218 59.3214 60.004C54.0724 61.823 48.2144 60.794 43.7224 57.579C41.8114 56.211 40.1644 54.496 38.9254 52.511C35.0014 54.313 30.5694 54.88 26.3124 54.053C21.9334 53.202 17.8834 50.854 14.9184 47.531C11.4504 46.994 8.03039 45.921 5.21539 43.759C2.49539 41.67 0.482415 38.67 0.0814151 35.22C-0.754585 28.026 4.9824 21.981 11.1004 19.256C14.0394 17.947 17.1474 17.143 20.2884 16.496C20.8634 14.489 21.6024 12.534 22.5874 10.684C24.6424 6.82398 27.8214 3.68997 31.8124 1.86597C35.6484 0.112975 39.9764 -0.46102 44.1194 0.38398C48.1494 1.20598 51.8984 3.35597 54.7374 6.31797C56.3704 8.02197 57.7094 9.99997 58.6574 12.161C59.6414 14.405 60.2614 16.768 60.8014 19.151C60.8524 19.023 60.9534 18.908 61.1164 18.826C64.0904 17.32 67.9774 18.933 70.6844 20.383C73.5414 21.913 76.0484 24.149 77.7684 26.906C81.2634 32.509 81.1434 40.212 76.5434 45.161C74.8924 46.937 72.7824 48.257 70.4734 48.927Z" fill="#F9F9F9"/>
<path d="M76.5424 45.1609C74.8924 46.9369 72.7823 48.2559 70.4733 48.9269C68.7073 54.1009 64.4743 58.218 59.3214 60.004C54.0723 61.823 48.2144 60.7939 43.7224 57.5789C41.8114 56.2109 40.1644 54.496 38.9254 52.511C35.0014 54.313 30.5693 54.8799 26.3123 54.0529C21.9333 53.2019 17.8833 50.8539 14.9183 47.5309C11.4503 46.9939 8.03033 45.9209 5.21533 43.7589C3.09433 42.1299 1.40231 39.9459 0.570312 37.4269C6.75531 42.1149 16.7163 40.407 16.7163 40.407C23.9313 54.394 39.4724 46.623 39.4724 46.623C39.4724 46.623 46.9093 55.5029 55.3463 53.9489C63.7823 52.3949 67.1133 44.291 67.1133 44.291C74.2533 44.291 78.3503 36.5479 79.9623 32.6429C80.7463 37.0679 79.7004 41.7639 76.5424 45.1609Z" fill="#D3EAE8"/>
<path d="M31.8123 32.6379C31.8123 32.6379 20.9723 29.4389 20.2873 16.4969L15.8203 17.571C15.8203 17.571 16.0493 29.3079 31.8123 32.6379Z" fill="#D3EAE8"/>
</svg>
