<svg width="32" height="26" viewBox="0 0 32 26" fill="none" xmlns="http://www.w3.org/2000/svg">
<path d="M31.868 3.11711C30.8518 3.57093 29.7284 3.84669 28.6321 4.02822C29.152 3.94211 29.917 3.01122 30.2235 2.63537C30.6915 2.06171 31.0794 1.40774 31.2974 0.702583C31.3257 0.647893 31.3458 0.578069 31.2904 0.536179C31.2196 0.508252 31.1749 0.523371 31.1194 0.550135C29.8958 1.19711 28.6298 1.66721 27.2824 1.99884C27.1704 2.02677 27.0879 1.99884 27.0183 1.92902C26.9063 1.80452 26.8014 1.68701 26.6824 1.59043C26.1165 1.11451 25.5094 0.742143 24.8234 0.466364C23.9239 0.104478 22.942 -0.0491291 21.973 0.0137065C21.0299 0.0742148 20.1045 0.336042 19.2688 0.767746C18.4306 1.19945 17.682 1.80103 17.0867 2.52713C16.4714 3.27767 16.0164 4.16321 15.7842 5.10342C15.559 6.00988 15.5778 6.907 15.7146 7.82277C15.7358 7.97521 15.7217 7.995 15.5826 7.97522C10.3132 7.20141 5.94454 5.33963 2.39865 1.35073C2.24422 1.17735 2.16169 1.17733 2.03556 1.36351C0.484229 3.65934 1.23633 7.34804 3.17549 9.16097C3.43365 9.403 3.70008 9.64385 3.98535 9.86493C3.88044 9.88588 2.59078 9.7486 1.44143 9.16097C1.28819 9.06555 1.21041 9.12021 1.19627 9.29243C1.18212 9.54028 1.20334 9.76837 1.23753 10.0383C1.53577 12.3656 3.1684 14.5183 5.40463 15.3584C5.66986 15.4689 5.9634 15.5655 6.24985 15.6132C5.7406 15.7238 5.21602 15.8017 3.75429 15.6889C3.57275 15.654 3.50321 15.7435 3.57276 15.9169C4.67024 18.8702 7.04084 19.7499 8.81496 20.2502C9.05308 20.291 9.29004 20.291 9.52816 20.3468C9.51401 20.3678 9.49986 20.3678 9.48571 20.3887C8.89748 21.2743 6.85696 21.934 5.90565 22.2622C4.1775 22.8591 2.29491 23.1268 0.467741 22.9487C0.175394 22.9068 0.11409 22.9092 0.0351087 22.9487C-0.045051 22.9976 0.0245163 23.0663 0.118822 23.1419C0.49015 23.3839 0.867371 23.598 1.25167 23.8051C2.41163 24.4125 3.6211 24.8955 4.88598 25.2399C11.4178 27.0202 18.776 25.7123 23.6811 20.9019C27.5323 17.1248 28.8832 11.9152 28.8832 6.69988C28.8832 6.49508 29.1272 6.38339 29.2722 6.27517C30.2742 5.53162 31.0829 4.6426 31.8303 3.65003C31.9977 3.42661 32 3.22882 32 3.14737C32 3.1334 32 3.12059 32 3.12059C32 3.03332 31.9976 3.05893 31.868 3.11711Z" fill="black"/>
</svg>
