<svg width="32" height="26" viewBox="0 0 32 26" fill="none" xmlns="http://www.w3.org/2000/svg">
<path d="M1.96224 11.3221C1.96224 11.3221 16.1157 5.61508 21.0235 3.6053C22.9048 2.80138 29.286 0.229472 29.286 0.229472C29.286 0.229472 32.2315 -0.895789 31.9854 1.83731C31.9034 2.96259 31.2493 6.90155 30.5952 11.1619C29.613 17.1913 28.5498 23.7828 28.5498 23.7828C28.5498 23.7828 28.3858 25.6313 26.9956 25.9537C25.6043 26.2751 23.3139 24.8284 22.9048 24.5071C22.5778 24.2663 16.7687 20.6487 14.6424 18.8797C14.0693 18.3971 13.4152 17.433 14.7245 16.3078C17.67 13.6553 21.1876 10.359 23.315 8.26865C24.2971 7.30353 25.2783 5.05299 21.1876 7.78609C15.3785 11.7251 9.65258 15.4233 9.65258 15.4233C9.65258 15.4233 8.34338 16.2272 5.88895 15.5038C3.43451 14.7805 0.571007 13.8154 0.571007 13.8154C0.571007 13.8154 -1.39236 12.6085 1.96224 11.3221Z" fill="#789745"/>
</svg>
